<?xml version="1.0" encoding="UTF-8"?>
<svg id="Layer_2" data-name="Layer 2" xmlns="http://www.w3.org/2000/svg" viewBox="0 0 147.07 204.13">
  <defs>
    <style>
      .cls-1 {
        stroke: #1c1c26;
        stroke-linejoin: round;
        stroke-width: 2px;
      }

      .cls-1, .cls-2, .cls-3, .cls-4 {
        fill: none;
      }

      .cls-5 {
        fill: #fff;
      }

      .cls-2 {
        stroke: #fff;
      }

      .cls-2, .cls-3, .cls-4 {
        stroke-miterlimit: 10;
      }

      .cls-6 {
        fill: #8b93bc;
      }

      .cls-7 {
        fill: #055f66;
      }

      .cls-8 {
        fill: #199e8e;
      }

      .cls-9 {
        fill: #0d3d4c;
      }

      .cls-3 {
        stroke: #0f3d49;
      }

      .cls-4 {
        stroke: #0e2335;
      }
    </style>
  </defs>
  <g id="OBJECTS">
    <g>
      <g>
        <rect class="cls-6" x="1" y="1" width="145.07" height="202.13" rx="6.58" ry="6.58"/>
        <rect class="cls-1" x="1" y="1" width="145.07" height="202.13" rx="6.58" ry="6.58"/>
        <rect class="cls-5" x="-23.63" y="33.53" width="194.13" height="137.07" rx="2.58" ry="2.58" transform="translate(175.51 28.63) rotate(90)"/>
        <rect class="cls-7" x="-18.63" y="38.53" width="184.13" height="127.07" rx=".8" ry=".8" transform="translate(175.5 28.63) rotate(90)"/>
      </g>
      <g>
        <g>
          <path class="cls-8" d="M31.79,25.15c0,3.87-3.11,7.01-6.94,7.01s-6.94-3.14-6.94-7.01,3.11-7.01,6.94-7.01,6.94,3.14,6.94,7.01Z"/>
          <path class="cls-9" d="M24.84,26.16c-.52,0-.94-.45-.94-1.01s.42-1.01.94-1.01.94.45.94,1.01-.42,1.01-.94,1.01Z"/>
          <path class="cls-8" d="M45.67,25.15c0,3.87-3.11,7.01-6.94,7.01s-6.94-3.14-6.94-7.01,3.11-7.01,6.94-7.01,6.94,3.14,6.94,7.01Z"/>
          <path class="cls-9" d="M38.73,26.16c-.52,0-.94-.45-.94-1.01s.42-1.01.94-1.01.94.45.94,1.01-.42,1.01-.94,1.01Z"/>
          <path class="cls-8" d="M59.55,25.15c0,3.87-3.11,7.01-6.94,7.01s-6.94-3.14-6.94-7.01,3.11-7.01,6.94-7.01,6.94,3.14,6.94,7.01Z"/>
          <path class="cls-9" d="M52.61,26.16c-.52,0-.94-.45-.94-1.01s.42-1.01.94-1.01.94.45.94,1.01-.42,1.01-.94,1.01Z"/>
          <path class="cls-8" d="M73.44,25.15c0,3.87-3.11,7.01-6.94,7.01s-6.94-3.14-6.94-7.01,3.11-7.01,6.94-7.01,6.94,3.14,6.94,7.01Z"/>
          <path class="cls-9" d="M66.5,26.16c-.52,0-.94-.45-.94-1.01s.42-1.01.94-1.01.94.45.94,1.01-.42,1.01-.94,1.01Z"/>
          <path class="cls-8" d="M87.32,25.15c0,3.87-3.11,7.01-6.94,7.01s-6.94-3.14-6.94-7.01,3.11-7.01,6.94-7.01,6.94,3.14,6.94,7.01Z"/>
          <path class="cls-9" d="M80.38,26.16c-.52,0-.94-.45-.94-1.01s.42-1.01.94-1.01.94.45.94,1.01-.42,1.01-.94,1.01Z"/>
          <path class="cls-8" d="M101.21,25.15c0,3.87-3.11,7.01-6.94,7.01s-6.94-3.14-6.94-7.01,3.11-7.01,6.94-7.01,6.94,3.14,6.94,7.01Z"/>
          <path class="cls-9" d="M94.26,26.16c-.52,0-.94-.45-.94-1.01s.42-1.01.94-1.01.94.45.94,1.01-.42,1.01-.94,1.01Z"/>
          <path class="cls-8" d="M115.09,25.15c0,3.87-3.11,7.01-6.94,7.01s-6.94-3.14-6.94-7.01,3.11-7.01,6.94-7.01,6.94,3.14,6.94,7.01Z"/>
          <path class="cls-9" d="M108.15,26.16c-.52,0-.94-.45-.94-1.01s.42-1.01.94-1.01.94.45.94,1.01-.42,1.01-.94,1.01Z"/>
          <path class="cls-8" d="M128.97,25.15c0,3.87-3.11,7.01-6.94,7.01s-6.94-3.14-6.94-7.01,3.11-7.01,6.94-7.01,6.94,3.14,6.94,7.01Z"/>
          <path class="cls-9" d="M122.03,26.16c-.52,0-.94-.45-.94-1.01s.42-1.01.94-1.01.94.45.94,1.01-.42,1.01-.94,1.01Z"/>
        </g>
        <g>
          <ellipse class="cls-8" cx="24.85" cy="39.16" rx="6.94" ry="7.01"/>
          <path class="cls-9" d="M24.84,40.17c-.52,0-.94-.45-.94-1.01s.42-1.01.94-1.01.94.45.94,1.01-.42,1.01-.94,1.01Z"/>
          <ellipse class="cls-8" cx="38.73" cy="39.16" rx="6.94" ry="7.01"/>
          <path class="cls-9" d="M38.73,40.17c-.52,0-.94-.45-.94-1.01s.42-1.01.94-1.01.94.45.94,1.01-.42,1.01-.94,1.01Z"/>
          <ellipse class="cls-8" cx="52.61" cy="39.16" rx="6.94" ry="7.01"/>
          <path class="cls-9" d="M52.61,40.17c-.52,0-.94-.45-.94-1.01s.42-1.01.94-1.01.94.45.94,1.01-.42,1.01-.94,1.01Z"/>
          <ellipse class="cls-8" cx="66.5" cy="39.16" rx="6.94" ry="7.01"/>
          <path class="cls-9" d="M66.5,40.17c-.52,0-.94-.45-.94-1.01s.42-1.01.94-1.01.94.45.94,1.01-.42,1.01-.94,1.01Z"/>
          <ellipse class="cls-8" cx="80.38" cy="39.16" rx="6.94" ry="7.01"/>
          <path class="cls-9" d="M80.38,40.17c-.52,0-.94-.45-.94-1.01s.42-1.01.94-1.01.94.45.94,1.01-.42,1.01-.94,1.01Z"/>
          <ellipse class="cls-8" cx="94.26" cy="39.16" rx="6.94" ry="7.01"/>
          <path class="cls-9" d="M94.26,40.17c-.52,0-.94-.45-.94-1.01s.42-1.01.94-1.01.94.45.94,1.01-.42,1.01-.94,1.01Z"/>
          <ellipse class="cls-8" cx="108.15" cy="39.16" rx="6.94" ry="7.01"/>
          <path class="cls-9" d="M108.15,40.17c-.52,0-.94-.45-.94-1.01s.42-1.01.94-1.01.94.45.94,1.01-.42,1.01-.94,1.01Z"/>
          <ellipse class="cls-8" cx="122.03" cy="39.16" rx="6.94" ry="7.01"/>
          <path class="cls-9" d="M122.03,40.17c-.52,0-.94-.45-.94-1.01s.42-1.01.94-1.01.94.45.94,1.01-.42,1.01-.94,1.01Z"/>
        </g>
        <g>
          <path class="cls-8" d="M31.79,53.17c0,3.87-3.11,7.01-6.94,7.01s-6.94-3.14-6.94-7.01,3.11-7.01,6.94-7.01,6.94,3.14,6.94,7.01Z"/>
          <path class="cls-9" d="M24.84,54.18c-.52,0-.94-.45-.94-1.01s.42-1.01.94-1.01.94.45.94,1.01-.42,1.01-.94,1.01Z"/>
          <path class="cls-8" d="M45.67,53.17c0,3.87-3.11,7.01-6.94,7.01s-6.94-3.14-6.94-7.01,3.11-7.01,6.94-7.01,6.94,3.14,6.94,7.01Z"/>
          <path class="cls-9" d="M38.73,54.18c-.52,0-.94-.45-.94-1.01s.42-1.01.94-1.01.94.45.94,1.01-.42,1.01-.94,1.01Z"/>
          <path class="cls-8" d="M59.55,53.17c0,3.87-3.11,7.01-6.94,7.01s-6.94-3.14-6.94-7.01,3.11-7.01,6.94-7.01,6.94,3.14,6.94,7.01Z"/>
          <path class="cls-9" d="M52.61,54.18c-.52,0-.94-.45-.94-1.01s.42-1.01.94-1.01.94.45.94,1.01-.42,1.01-.94,1.01Z"/>
          <path class="cls-8" d="M73.44,53.17c0,3.87-3.11,7.01-6.94,7.01s-6.94-3.14-6.94-7.01,3.11-7.01,6.94-7.01,6.94,3.14,6.94,7.01Z"/>
          <path class="cls-9" d="M66.5,54.18c-.52,0-.94-.45-.94-1.01s.42-1.01.94-1.01.94.45.94,1.01-.42,1.01-.94,1.01Z"/>
          <path class="cls-8" d="M87.32,53.17c0,3.87-3.11,7.01-6.94,7.01s-6.94-3.14-6.94-7.01,3.11-7.01,6.94-7.01,6.94,3.14,6.94,7.01Z"/>
          <path class="cls-9" d="M80.38,54.18c-.52,0-.94-.45-.94-1.01s.42-1.01.94-1.01.94.45.94,1.01-.42,1.01-.94,1.01Z"/>
          <path class="cls-8" d="M101.21,53.17c0,3.87-3.11,7.01-6.94,7.01s-6.94-3.14-6.94-7.01,3.11-7.01,6.94-7.01,6.94,3.14,6.94,7.01Z"/>
          <path class="cls-9" d="M94.26,54.18c-.52,0-.94-.45-.94-1.01s.42-1.01.94-1.01.94.45.94,1.01-.42,1.01-.94,1.01Z"/>
          <path class="cls-8" d="M115.09,53.17c0,3.87-3.11,7.01-6.94,7.01s-6.94-3.14-6.94-7.01,3.11-7.01,6.94-7.01,6.94,3.14,6.94,7.01Z"/>
          <path class="cls-9" d="M108.15,54.18c-.52,0-.94-.45-.94-1.01s.42-1.01.94-1.01.94.45.94,1.01-.42,1.01-.94,1.01Z"/>
          <path class="cls-8" d="M128.97,53.17c0,3.87-3.11,7.01-6.94,7.01s-6.94-3.14-6.94-7.01,3.11-7.01,6.94-7.01,6.94,3.14,6.94,7.01Z"/>
          <path class="cls-9" d="M122.03,54.18c-.52,0-.94-.45-.94-1.01s.42-1.01.94-1.01.94.45.94,1.01-.42,1.01-.94,1.01Z"/>
        </g>
        <g>
          <path class="cls-8" d="M31.79,67.18c0,3.87-3.11,7.01-6.94,7.01s-6.94-3.14-6.94-7.01,3.11-7.01,6.94-7.01,6.94,3.14,6.94,7.01Z"/>
          <path class="cls-9" d="M24.84,68.19c-.52,0-.94-.45-.94-1.01s.42-1.01.94-1.01.94.45.94,1.01-.42,1.01-.94,1.01Z"/>
          <path class="cls-8" d="M45.67,67.18c0,3.87-3.11,7.01-6.94,7.01s-6.94-3.14-6.94-7.01,3.11-7.01,6.94-7.01,6.94,3.14,6.94,7.01Z"/>
          <path class="cls-9" d="M38.73,68.19c-.52,0-.94-.45-.94-1.01s.42-1.01.94-1.01.94.45.94,1.01-.42,1.01-.94,1.01Z"/>
          <path class="cls-8" d="M59.55,67.18c0,3.87-3.11,7.01-6.94,7.01s-6.94-3.14-6.94-7.01,3.11-7.01,6.94-7.01,6.94,3.14,6.94,7.01Z"/>
          <path class="cls-9" d="M52.61,68.19c-.52,0-.94-.45-.94-1.01s.42-1.01.94-1.01.94.45.94,1.01-.42,1.01-.94,1.01Z"/>
          <path class="cls-8" d="M73.44,67.18c0,3.87-3.11,7.01-6.94,7.01s-6.94-3.14-6.94-7.01,3.11-7.01,6.94-7.01,6.94,3.14,6.94,7.01Z"/>
          <path class="cls-9" d="M66.5,68.19c-.52,0-.94-.45-.94-1.01s.42-1.01.94-1.01.94.45.94,1.01-.42,1.01-.94,1.01Z"/>
          <path class="cls-8" d="M87.32,67.18c0,3.87-3.11,7.01-6.94,7.01s-6.94-3.14-6.94-7.01,3.11-7.01,6.94-7.01,6.94,3.14,6.94,7.01Z"/>
          <path class="cls-9" d="M80.38,68.19c-.52,0-.94-.45-.94-1.01s.42-1.01.94-1.01.94.45.94,1.01-.42,1.01-.94,1.01Z"/>
          <path class="cls-8" d="M101.21,67.18c0,3.87-3.11,7.01-6.94,7.01s-6.94-3.14-6.94-7.01,3.11-7.01,6.94-7.01,6.94,3.14,6.94,7.01Z"/>
          <path class="cls-9" d="M94.26,68.19c-.52,0-.94-.45-.94-1.01s.42-1.01.94-1.01.94.45.94,1.01-.42,1.01-.94,1.01Z"/>
          <path class="cls-8" d="M115.09,67.18c0,3.87-3.11,7.01-6.94,7.01s-6.94-3.14-6.94-7.01,3.11-7.01,6.94-7.01,6.94,3.14,6.94,7.01Z"/>
          <path class="cls-9" d="M108.15,68.19c-.52,0-.94-.45-.94-1.01s.42-1.01.94-1.01.94.45.94,1.01-.42,1.01-.94,1.01Z"/>
          <path class="cls-8" d="M128.97,67.18c0,3.87-3.11,7.01-6.94,7.01s-6.94-3.14-6.94-7.01,3.11-7.01,6.94-7.01,6.94,3.14,6.94,7.01Z"/>
          <path class="cls-9" d="M122.03,68.19c-.52,0-.94-.45-.94-1.01s.42-1.01.94-1.01.94.45.94,1.01-.42,1.01-.94,1.01Z"/>
        </g>
        <g>
          <path class="cls-8" d="M31.79,81.19c0,3.87-3.11,7.01-6.94,7.01s-6.94-3.14-6.94-7.01,3.11-7.01,6.94-7.01,6.94,3.14,6.94,7.01Z"/>
          <path class="cls-9" d="M24.84,82.2c-.52,0-.94-.45-.94-1.01s.42-1.01.94-1.01.94.45.94,1.01-.42,1.01-.94,1.01Z"/>
          <path class="cls-8" d="M45.67,81.19c0,3.87-3.11,7.01-6.94,7.01s-6.94-3.14-6.94-7.01,3.11-7.01,6.94-7.01,6.94,3.14,6.94,7.01Z"/>
          <path class="cls-9" d="M38.73,82.2c-.52,0-.94-.45-.94-1.01s.42-1.01.94-1.01.94.45.94,1.01-.42,1.01-.94,1.01Z"/>
          <path class="cls-8" d="M59.55,81.19c0,3.87-3.11,7.01-6.94,7.01s-6.94-3.14-6.94-7.01,3.11-7.01,6.94-7.01,6.94,3.14,6.94,7.01Z"/>
          <path class="cls-9" d="M52.61,82.2c-.52,0-.94-.45-.94-1.01s.42-1.01.94-1.01.94.45.94,1.01-.42,1.01-.94,1.01Z"/>
          <path class="cls-8" d="M73.44,81.19c0,3.87-3.11,7.01-6.94,7.01s-6.94-3.14-6.94-7.01,3.11-7.01,6.94-7.01,6.94,3.14,6.94,7.01Z"/>
          <path class="cls-9" d="M66.5,82.2c-.52,0-.94-.45-.94-1.01s.42-1.01.94-1.01.94.45.94,1.01-.42,1.01-.94,1.01Z"/>
          <path class="cls-8" d="M87.32,81.19c0,3.87-3.11,7.01-6.94,7.01s-6.94-3.14-6.94-7.01,3.11-7.01,6.94-7.01,6.94,3.14,6.94,7.01Z"/>
          <path class="cls-9" d="M80.38,82.2c-.52,0-.94-.45-.94-1.01s.42-1.01.94-1.01.94.45.94,1.01-.42,1.01-.94,1.01Z"/>
          <path class="cls-8" d="M101.21,81.19c0,3.87-3.11,7.01-6.94,7.01s-6.94-3.14-6.94-7.01,3.11-7.01,6.94-7.01,6.94,3.14,6.94,7.01Z"/>
          <path class="cls-9" d="M94.26,82.2c-.52,0-.94-.45-.94-1.01s.42-1.01.94-1.01.94.45.94,1.01-.42,1.01-.94,1.01Z"/>
          <path class="cls-8" d="M115.09,81.19c0,3.87-3.11,7.01-6.94,7.01s-6.94-3.14-6.94-7.01,3.11-7.01,6.94-7.01,6.94,3.14,6.94,7.01Z"/>
          <path class="cls-9" d="M108.15,82.2c-.52,0-.94-.45-.94-1.01s.42-1.01.94-1.01.94.45.94,1.01-.42,1.01-.94,1.01Z"/>
          <path class="cls-8" d="M128.97,81.19c0,3.87-3.11,7.01-6.94,7.01s-6.94-3.14-6.94-7.01,3.11-7.01,6.94-7.01,6.94,3.14,6.94,7.01Z"/>
          <path class="cls-9" d="M122.03,82.2c-.52,0-.94-.45-.94-1.01s.42-1.01.94-1.01.94.45.94,1.01-.42,1.01-.94,1.01Z"/>
        </g>
        <g>
          <path class="cls-8" d="M31.79,95.21c0,3.87-3.11,7.01-6.94,7.01s-6.94-3.14-6.94-7.01,3.11-7.01,6.94-7.01,6.94,3.14,6.94,7.01Z"/>
          <path class="cls-9" d="M24.84,96.21c-.52,0-.94-.45-.94-1.01s.42-1.01.94-1.01.94.45.94,1.01-.42,1.01-.94,1.01Z"/>
          <path class="cls-8" d="M45.67,95.21c0,3.87-3.11,7.01-6.94,7.01s-6.94-3.14-6.94-7.01,3.11-7.01,6.94-7.01,6.94,3.14,6.94,7.01Z"/>
          <path class="cls-9" d="M38.73,96.21c-.52,0-.94-.45-.94-1.01s.42-1.01.94-1.01.94.45.94,1.01-.42,1.01-.94,1.01Z"/>
          <path class="cls-8" d="M59.55,95.21c0,3.87-3.11,7.01-6.94,7.01s-6.94-3.14-6.94-7.01,3.11-7.01,6.94-7.01,6.94,3.14,6.94,7.01Z"/>
          <path class="cls-9" d="M52.61,96.21c-.52,0-.94-.45-.94-1.01s.42-1.01.94-1.01.94.45.94,1.01-.42,1.01-.94,1.01Z"/>
          <path class="cls-8" d="M73.44,95.21c0,3.87-3.11,7.01-6.94,7.01s-6.94-3.14-6.94-7.01,3.11-7.01,6.94-7.01,6.94,3.14,6.94,7.01Z"/>
          <path class="cls-9" d="M66.5,96.21c-.52,0-.94-.45-.94-1.01s.42-1.01.94-1.01.94.45.94,1.01-.42,1.01-.94,1.01Z"/>
          <path class="cls-8" d="M87.32,95.21c0,3.87-3.11,7.01-6.94,7.01s-6.94-3.14-6.94-7.01,3.11-7.01,6.94-7.01,6.94,3.14,6.94,7.01Z"/>
          <path class="cls-9" d="M80.38,96.21c-.52,0-.94-.45-.94-1.01s.42-1.01.94-1.01.94.45.94,1.01-.42,1.01-.94,1.01Z"/>
          <path class="cls-8" d="M101.21,95.21c0,3.87-3.11,7.01-6.94,7.01s-6.94-3.14-6.94-7.01,3.11-7.01,6.94-7.01,6.94,3.14,6.94,7.01Z"/>
          <path class="cls-9" d="M94.26,96.21c-.52,0-.94-.45-.94-1.01s.42-1.01.94-1.01.94.45.94,1.01-.42,1.01-.94,1.01Z"/>
          <path class="cls-8" d="M115.09,95.21c0,3.87-3.11,7.01-6.94,7.01s-6.94-3.14-6.94-7.01,3.11-7.01,6.94-7.01,6.94,3.14,6.94,7.01Z"/>
          <path class="cls-9" d="M108.15,96.21c-.52,0-.94-.45-.94-1.01s.42-1.01.94-1.01.94.45.94,1.01-.42,1.01-.94,1.01Z"/>
          <path class="cls-8" d="M128.97,95.21c0,3.87-3.11,7.01-6.94,7.01s-6.94-3.14-6.94-7.01,3.11-7.01,6.94-7.01,6.94,3.14,6.94,7.01Z"/>
          <path class="cls-9" d="M122.03,96.21c-.52,0-.94-.45-.94-1.01s.42-1.01.94-1.01.94.45.94,1.01-.42,1.01-.94,1.01Z"/>
        </g>
        <g>
          <path class="cls-8" d="M31.79,109.22c0,3.87-3.11,7.01-6.94,7.01s-6.94-3.14-6.94-7.01,3.11-7.01,6.94-7.01,6.94,3.14,6.94,7.01Z"/>
          <path class="cls-9" d="M24.84,110.22c-.52,0-.94-.45-.94-1.01s.42-1.01.94-1.01.94.45.94,1.01-.42,1.01-.94,1.01Z"/>
          <path class="cls-8" d="M45.67,109.22c0,3.87-3.11,7.01-6.94,7.01s-6.94-3.14-6.94-7.01,3.11-7.01,6.94-7.01,6.94,3.14,6.94,7.01Z"/>
          <path class="cls-9" d="M38.73,110.22c-.52,0-.94-.45-.94-1.01s.42-1.01.94-1.01.94.45.94,1.01-.42,1.01-.94,1.01Z"/>
          <path class="cls-8" d="M59.55,109.22c0,3.87-3.11,7.01-6.94,7.01s-6.94-3.14-6.94-7.01,3.11-7.01,6.94-7.01,6.94,3.14,6.94,7.01Z"/>
          <path class="cls-9" d="M52.61,110.22c-.52,0-.94-.45-.94-1.01s.42-1.01.94-1.01.94.45.94,1.01-.42,1.01-.94,1.01Z"/>
          <path class="cls-8" d="M73.44,109.22c0,3.87-3.11,7.01-6.94,7.01s-6.94-3.14-6.94-7.01,3.11-7.01,6.94-7.01,6.94,3.14,6.94,7.01Z"/>
          <path class="cls-9" d="M66.5,110.22c-.52,0-.94-.45-.94-1.01s.42-1.01.94-1.01.94.45.94,1.01-.42,1.01-.94,1.01Z"/>
          <path class="cls-8" d="M87.32,109.22c0,3.87-3.11,7.01-6.94,7.01s-6.94-3.14-6.94-7.01,3.11-7.01,6.94-7.01,6.94,3.14,6.94,7.01Z"/>
          <path class="cls-9" d="M80.38,110.22c-.52,0-.94-.45-.94-1.01s.42-1.01.94-1.01.94.45.94,1.01-.42,1.01-.94,1.01Z"/>
          <path class="cls-8" d="M101.21,109.22c0,3.87-3.11,7.01-6.94,7.01s-6.94-3.14-6.94-7.01,3.11-7.01,6.94-7.01,6.94,3.14,6.94,7.01Z"/>
          <path class="cls-9" d="M94.26,110.22c-.52,0-.94-.45-.94-1.01s.42-1.01.94-1.01.94.45.94,1.01-.42,1.01-.94,1.01Z"/>
          <path class="cls-8" d="M115.09,109.22c0,3.87-3.11,7.01-6.94,7.01s-6.94-3.14-6.94-7.01,3.11-7.01,6.94-7.01,6.94,3.14,6.94,7.01Z"/>
          <path class="cls-9" d="M108.15,110.22c-.52,0-.94-.45-.94-1.01s.42-1.01.94-1.01.94.45.94,1.01-.42,1.01-.94,1.01Z"/>
          <path class="cls-8" d="M128.97,109.22c0,3.87-3.11,7.01-6.94,7.01s-6.94-3.14-6.94-7.01,3.11-7.01,6.94-7.01,6.94,3.14,6.94,7.01Z"/>
          <path class="cls-9" d="M122.03,110.22c-.52,0-.94-.45-.94-1.01s.42-1.01.94-1.01.94.45.94,1.01-.42,1.01-.94,1.01Z"/>
        </g>
        <g>
          <path class="cls-8" d="M31.79,123.23c0,3.87-3.11,7.01-6.94,7.01s-6.94-3.14-6.94-7.01,3.11-7.01,6.94-7.01,6.94,3.14,6.94,7.01Z"/>
          <path class="cls-9" d="M24.84,124.23c-.52,0-.94-.45-.94-1.01s.42-1.01.94-1.01.94.45.94,1.01-.42,1.01-.94,1.01Z"/>
          <path class="cls-8" d="M45.67,123.23c0,3.87-3.11,7.01-6.94,7.01s-6.94-3.14-6.94-7.01,3.11-7.01,6.94-7.01,6.94,3.14,6.94,7.01Z"/>
          <path class="cls-9" d="M38.73,124.23c-.52,0-.94-.45-.94-1.01s.42-1.01.94-1.01.94.45.94,1.01-.42,1.01-.94,1.01Z"/>
          <path class="cls-8" d="M59.55,123.23c0,3.87-3.11,7.01-6.94,7.01s-6.94-3.14-6.94-7.01,3.11-7.01,6.94-7.01,6.94,3.14,6.94,7.01Z"/>
          <path class="cls-9" d="M52.61,124.23c-.52,0-.94-.45-.94-1.01s.42-1.01.94-1.01.94.45.94,1.01-.42,1.01-.94,1.01Z"/>
          <path class="cls-8" d="M73.44,123.23c0,3.87-3.11,7.01-6.94,7.01s-6.94-3.14-6.94-7.01,3.11-7.01,6.94-7.01,6.94,3.14,6.94,7.01Z"/>
          <path class="cls-9" d="M66.5,124.23c-.52,0-.94-.45-.94-1.01s.42-1.01.94-1.01.94.45.94,1.01-.42,1.01-.94,1.01Z"/>
          <path class="cls-8" d="M87.32,123.23c0,3.87-3.11,7.01-6.94,7.01s-6.94-3.14-6.94-7.01,3.11-7.01,6.94-7.01,6.94,3.14,6.94,7.01Z"/>
          <path class="cls-9" d="M80.38,124.23c-.52,0-.94-.45-.94-1.01s.42-1.01.94-1.01.94.45.94,1.01-.42,1.01-.94,1.01Z"/>
          <path class="cls-8" d="M101.21,123.23c0,3.87-3.11,7.01-6.94,7.01s-6.94-3.14-6.94-7.01,3.11-7.01,6.94-7.01,6.94,3.14,6.94,7.01Z"/>
          <path class="cls-9" d="M94.26,124.23c-.52,0-.94-.45-.94-1.01s.42-1.01.94-1.01.94.45.94,1.01-.42,1.01-.94,1.01Z"/>
          <path class="cls-8" d="M115.09,123.23c0,3.87-3.11,7.01-6.94,7.01s-6.94-3.14-6.94-7.01,3.11-7.01,6.94-7.01,6.94,3.14,6.94,7.01Z"/>
          <path class="cls-9" d="M108.15,124.23c-.52,0-.94-.45-.94-1.01s.42-1.01.94-1.01.94.45.94,1.01-.42,1.01-.94,1.01Z"/>
          <path class="cls-8" d="M128.97,123.23c0,3.87-3.11,7.01-6.94,7.01s-6.94-3.14-6.94-7.01,3.11-7.01,6.94-7.01,6.94,3.14,6.94,7.01Z"/>
          <path class="cls-9" d="M122.03,124.23c-.52,0-.94-.45-.94-1.01s.42-1.01.94-1.01.94.45.94,1.01-.42,1.01-.94,1.01Z"/>
        </g>
        <g>
          <path class="cls-8" d="M31.79,137.24c0,3.87-3.11,7.01-6.94,7.01s-6.94-3.14-6.94-7.01,3.11-7.01,6.94-7.01,6.94,3.14,6.94,7.01Z"/>
          <path class="cls-9" d="M24.84,138.24c-.52,0-.94-.45-.94-1.01s.42-1.01.94-1.01.94.45.94,1.01-.42,1.01-.94,1.01Z"/>
          <path class="cls-8" d="M45.67,137.24c0,3.87-3.11,7.01-6.94,7.01s-6.94-3.14-6.94-7.01,3.11-7.01,6.94-7.01,6.94,3.14,6.94,7.01Z"/>
          <path class="cls-9" d="M38.73,138.24c-.52,0-.94-.45-.94-1.01s.42-1.01.94-1.01.94.45.94,1.01-.42,1.01-.94,1.01Z"/>
          <path class="cls-8" d="M59.55,137.24c0,3.87-3.11,7.01-6.94,7.01s-6.94-3.14-6.94-7.01,3.11-7.01,6.94-7.01,6.94,3.14,6.94,7.01Z"/>
          <path class="cls-9" d="M52.61,138.24c-.52,0-.94-.45-.94-1.01s.42-1.01.94-1.01.94.45.94,1.01-.42,1.01-.94,1.01Z"/>
          <path class="cls-8" d="M73.44,137.24c0,3.87-3.11,7.01-6.94,7.01s-6.94-3.14-6.94-7.01,3.11-7.01,6.94-7.01,6.94,3.14,6.94,7.01Z"/>
          <path class="cls-9" d="M66.5,138.24c-.52,0-.94-.45-.94-1.01s.42-1.01.94-1.01.94.45.94,1.01-.42,1.01-.94,1.01Z"/>
          <path class="cls-8" d="M87.32,137.24c0,3.87-3.11,7.01-6.94,7.01s-6.94-3.14-6.94-7.01,3.11-7.01,6.94-7.01,6.94,3.14,6.94,7.01Z"/>
          <path class="cls-9" d="M80.38,138.24c-.52,0-.94-.45-.94-1.01s.42-1.01.94-1.01.94.45.94,1.01-.42,1.01-.94,1.01Z"/>
          <path class="cls-8" d="M101.21,137.24c0,3.87-3.11,7.01-6.94,7.01s-6.94-3.14-6.94-7.01,3.11-7.01,6.94-7.01,6.94,3.14,6.94,7.01Z"/>
          <path class="cls-9" d="M94.26,138.24c-.52,0-.94-.45-.94-1.01s.42-1.01.94-1.01.94.45.94,1.01-.42,1.01-.94,1.01Z"/>
          <path class="cls-8" d="M115.09,137.24c0,3.87-3.11,7.01-6.94,7.01s-6.94-3.14-6.94-7.01,3.11-7.01,6.94-7.01,6.94,3.14,6.94,7.01Z"/>
          <path class="cls-9" d="M108.15,138.24c-.52,0-.94-.45-.94-1.01s.42-1.01.94-1.01.94.45.94,1.01-.42,1.01-.94,1.01Z"/>
          <path class="cls-8" d="M128.97,137.24c0,3.87-3.11,7.01-6.94,7.01s-6.94-3.14-6.94-7.01,3.11-7.01,6.94-7.01,6.94,3.14,6.94,7.01Z"/>
          <path class="cls-9" d="M122.03,138.24c-.52,0-.94-.45-.94-1.01s.42-1.01.94-1.01.94.45.94,1.01-.42,1.01-.94,1.01Z"/>
        </g>
        <g>
          <path class="cls-8" d="M31.79,151.25c0,3.87-3.11,7.01-6.94,7.01s-6.94-3.14-6.94-7.01,3.11-7.01,6.94-7.01,6.94,3.14,6.94,7.01Z"/>
          <path class="cls-9" d="M24.84,152.26c-.52,0-.94-.45-.94-1.01s.42-1.01.94-1.01.94.45.94,1.01-.42,1.01-.94,1.01Z"/>
          <path class="cls-8" d="M45.67,151.25c0,3.87-3.11,7.01-6.94,7.01s-6.94-3.14-6.94-7.01,3.11-7.01,6.94-7.01,6.94,3.14,6.94,7.01Z"/>
          <path class="cls-9" d="M38.73,152.26c-.52,0-.94-.45-.94-1.01s.42-1.01.94-1.01.94.45.94,1.01-.42,1.01-.94,1.01Z"/>
          <path class="cls-8" d="M59.55,151.25c0,3.87-3.11,7.01-6.94,7.01s-6.94-3.14-6.94-7.01,3.11-7.01,6.94-7.01,6.94,3.14,6.94,7.01Z"/>
          <path class="cls-9" d="M52.61,152.26c-.52,0-.94-.45-.94-1.01s.42-1.01.94-1.01.94.45.94,1.01-.42,1.01-.94,1.01Z"/>
          <path class="cls-8" d="M73.44,151.25c0,3.87-3.11,7.01-6.94,7.01s-6.94-3.14-6.94-7.01,3.11-7.01,6.94-7.01,6.94,3.14,6.94,7.01Z"/>
          <path class="cls-9" d="M66.5,152.26c-.52,0-.94-.45-.94-1.01s.42-1.01.94-1.01.94.45.94,1.01-.42,1.01-.94,1.01Z"/>
          <path class="cls-8" d="M87.32,151.25c0,3.87-3.11,7.01-6.94,7.01s-6.94-3.14-6.94-7.01,3.11-7.01,6.94-7.01,6.94,3.14,6.94,7.01Z"/>
          <path class="cls-9" d="M80.38,152.26c-.52,0-.94-.45-.94-1.01s.42-1.01.94-1.01.94.45.94,1.01-.42,1.01-.94,1.01Z"/>
          <path class="cls-8" d="M101.21,151.25c0,3.87-3.11,7.01-6.94,7.01s-6.94-3.14-6.94-7.01,3.11-7.01,6.94-7.01,6.94,3.14,6.94,7.01Z"/>
          <path class="cls-9" d="M94.26,152.26c-.52,0-.94-.45-.94-1.01s.42-1.01.94-1.01.94.45.94,1.01-.42,1.01-.94,1.01Z"/>
          <path class="cls-8" d="M115.09,151.25c0,3.87-3.11,7.01-6.94,7.01s-6.94-3.14-6.94-7.01,3.11-7.01,6.94-7.01,6.94,3.14,6.94,7.01Z"/>
          <path class="cls-9" d="M108.15,152.26c-.52,0-.94-.45-.94-1.01s.42-1.01.94-1.01.94.45.94,1.01-.42,1.01-.94,1.01Z"/>
          <path class="cls-8" d="M128.97,151.25c0,3.87-3.11,7.01-6.94,7.01s-6.94-3.14-6.94-7.01,3.11-7.01,6.94-7.01,6.94,3.14,6.94,7.01Z"/>
          <path class="cls-9" d="M122.03,152.26c-.52,0-.94-.45-.94-1.01s.42-1.01.94-1.01.94.45.94,1.01-.42,1.01-.94,1.01Z"/>
        </g>
        <g>
          <path class="cls-8" d="M31.79,165.26c0,3.87-3.11,7.01-6.94,7.01s-6.94-3.14-6.94-7.01,3.11-7.01,6.94-7.01,6.94,3.14,6.94,7.01Z"/>
          <path class="cls-9" d="M24.84,166.27c-.52,0-.94-.45-.94-1.01s.42-1.01.94-1.01.94.45.94,1.01-.42,1.01-.94,1.01Z"/>
          <path class="cls-8" d="M45.67,165.26c0,3.87-3.11,7.01-6.94,7.01s-6.94-3.14-6.94-7.01,3.11-7.01,6.94-7.01,6.94,3.14,6.94,7.01Z"/>
          <path class="cls-9" d="M38.73,166.27c-.52,0-.94-.45-.94-1.01s.42-1.01.94-1.01.94.45.94,1.01-.42,1.01-.94,1.01Z"/>
          <path class="cls-8" d="M59.55,165.26c0,3.87-3.11,7.01-6.94,7.01s-6.94-3.14-6.94-7.01,3.11-7.01,6.94-7.01,6.94,3.14,6.94,7.01Z"/>
          <path class="cls-9" d="M52.61,166.27c-.52,0-.94-.45-.94-1.01s.42-1.01.94-1.01.94.45.94,1.01-.42,1.01-.94,1.01Z"/>
          <path class="cls-8" d="M73.44,165.26c0,3.87-3.11,7.01-6.94,7.01s-6.94-3.14-6.94-7.01,3.11-7.01,6.94-7.01,6.94,3.14,6.94,7.01Z"/>
          <path class="cls-9" d="M66.5,166.27c-.52,0-.94-.45-.94-1.01s.42-1.01.94-1.01.94.45.94,1.01-.42,1.01-.94,1.01Z"/>
          <path class="cls-8" d="M87.32,165.26c0,3.87-3.11,7.01-6.94,7.01s-6.94-3.14-6.94-7.01,3.11-7.01,6.94-7.01,6.94,3.14,6.94,7.01Z"/>
          <path class="cls-9" d="M80.38,166.27c-.52,0-.94-.45-.94-1.01s.42-1.01.94-1.01.94.45.94,1.01-.42,1.01-.94,1.01Z"/>
          <path class="cls-8" d="M101.21,165.26c0,3.87-3.11,7.01-6.94,7.01s-6.94-3.14-6.94-7.01,3.11-7.01,6.94-7.01,6.94,3.14,6.94,7.01Z"/>
          <path class="cls-9" d="M94.26,166.27c-.52,0-.94-.45-.94-1.01s.42-1.01.94-1.01.94.45.94,1.01-.42,1.01-.94,1.01Z"/>
          <path class="cls-8" d="M115.09,165.26c0,3.87-3.11,7.01-6.94,7.01s-6.94-3.14-6.94-7.01,3.11-7.01,6.94-7.01,6.94,3.14,6.94,7.01Z"/>
          <path class="cls-9" d="M108.15,166.27c-.52,0-.94-.45-.94-1.01s.42-1.01.94-1.01.94.45.94,1.01-.42,1.01-.94,1.01Z"/>
          <path class="cls-8" d="M128.97,165.26c0,3.87-3.11,7.01-6.94,7.01s-6.94-3.14-6.94-7.01,3.11-7.01,6.94-7.01,6.94,3.14,6.94,7.01Z"/>
          <path class="cls-9" d="M122.03,166.27c-.52,0-.94-.45-.94-1.01s.42-1.01.94-1.01.94.45.94,1.01-.42,1.01-.94,1.01Z"/>
        </g>
        <g>
          <ellipse class="cls-8" cx="24.85" cy="179.27" rx="6.94" ry="7.01"/>
          <path class="cls-9" d="M24.84,180.28c-.52,0-.94-.45-.94-1.01s.42-1.01.94-1.01.94.45.94,1.01-.42,1.01-.94,1.01Z"/>
          <ellipse class="cls-8" cx="38.73" cy="179.27" rx="6.94" ry="7.01"/>
          <path class="cls-9" d="M38.73,180.28c-.52,0-.94-.45-.94-1.01s.42-1.01.94-1.01.94.45.94,1.01-.42,1.01-.94,1.01Z"/>
          <ellipse class="cls-8" cx="52.61" cy="179.27" rx="6.94" ry="7.01"/>
          <path class="cls-9" d="M52.61,180.28c-.52,0-.94-.45-.94-1.01s.42-1.01.94-1.01.94.45.94,1.01-.42,1.01-.94,1.01Z"/>
          <ellipse class="cls-8" cx="66.5" cy="179.27" rx="6.94" ry="7.01"/>
          <path class="cls-9" d="M66.5,180.28c-.52,0-.94-.45-.94-1.01s.42-1.01.94-1.01.94.45.94,1.01-.42,1.01-.94,1.01Z"/>
          <ellipse class="cls-8" cx="80.38" cy="179.27" rx="6.94" ry="7.01"/>
          <path class="cls-9" d="M80.38,180.28c-.52,0-.94-.45-.94-1.01s.42-1.01.94-1.01.94.45.94,1.01-.42,1.01-.94,1.01Z"/>
          <ellipse class="cls-8" cx="94.26" cy="179.27" rx="6.94" ry="7.01"/>
          <path class="cls-9" d="M94.26,180.28c-.52,0-.94-.45-.94-1.01s.42-1.01.94-1.01.94.45.94,1.01-.42,1.01-.94,1.01Z"/>
          <ellipse class="cls-8" cx="108.15" cy="179.27" rx="6.94" ry="7.01"/>
          <path class="cls-9" d="M108.15,180.28c-.52,0-.94-.45-.94-1.01s.42-1.01.94-1.01.94.45.94,1.01-.42,1.01-.94,1.01Z"/>
          <ellipse class="cls-8" cx="122.03" cy="179.27" rx="6.94" ry="7.01"/>
          <path class="cls-9" d="M122.03,180.28c-.52,0-.94-.45-.94-1.01s.42-1.01.94-1.01.94.45.94,1.01-.42,1.01-.94,1.01Z"/>
        </g>
      </g>
      <g>
        <g>
          <polygon class="cls-9" points="31.79 28.09 30.92 31.28 27.74 32.16 30.92 33.03 31.79 36.22 32.66 33.03 35.83 32.16 32.66 31.28 31.79 28.09"/>
          <polygon class="cls-5" points="45.67 28.09 44.8 31.28 41.63 32.16 44.8 33.03 45.67 36.22 46.54 33.03 49.71 32.16 46.54 31.28 45.67 28.09"/>
          <polygon class="cls-9" points="59.55 28.09 58.68 31.28 55.51 32.16 58.68 33.03 59.55 36.22 60.43 33.03 63.6 32.16 60.43 31.28 59.55 28.09"/>
          <polygon class="cls-5" points="73.44 28.09 72.57 31.28 69.4 32.16 72.57 33.03 73.44 36.22 74.31 33.03 77.48 32.16 74.31 31.28 73.44 28.09"/>
          <polygon class="cls-9" points="87.32 28.09 86.45 31.28 83.28 32.16 86.45 33.03 87.32 36.22 88.19 33.03 91.36 32.16 88.19 31.28 87.32 28.09"/>
          <polygon class="cls-5" points="101.21 28.09 100.33 31.28 97.16 32.16 100.33 33.03 101.21 36.22 102.08 33.03 105.25 32.16 102.08 31.28 101.21 28.09"/>
          <polygon class="cls-9" points="115.96 31.28 115.09 28.09 114.22 31.28 111.05 32.16 114.22 33.03 115.09 36.22 115.96 33.03 119.13 32.16 115.96 31.28"/>
        </g>
        <g>
          <polygon class="cls-5" points="115.09 42.1 115.96 45.29 119.13 46.17 115.96 47.04 115.09 50.23 114.22 47.04 111.05 46.17 114.22 45.29 115.09 42.1"/>
          <polygon class="cls-9" points="101.21 42.1 102.08 45.29 105.25 46.17 102.08 47.04 101.21 50.23 100.33 47.04 97.16 46.17 100.33 45.29 101.21 42.1"/>
          <polygon class="cls-5" points="87.32 42.1 88.19 45.29 91.36 46.17 88.19 47.04 87.32 50.23 86.45 47.04 83.28 46.17 86.45 45.29 87.32 42.1"/>
          <polygon class="cls-9" points="73.44 42.1 74.31 45.29 77.48 46.17 74.31 47.04 73.44 50.23 72.57 47.04 69.4 46.17 72.57 45.29 73.44 42.1"/>
          <polygon class="cls-5" points="59.55 42.1 60.43 45.29 63.6 46.17 60.43 47.04 59.55 50.23 58.68 47.04 55.51 46.17 58.68 45.29 59.55 42.1"/>
          <polygon class="cls-9" points="45.67 42.1 46.54 45.29 49.71 46.17 46.54 47.04 45.67 50.23 44.8 47.04 41.63 46.17 44.8 45.29 45.67 42.1"/>
          <polygon class="cls-5" points="30.92 45.29 31.79 42.1 32.66 45.29 35.83 46.17 32.66 47.04 31.79 50.23 30.92 47.04 27.74 46.17 30.92 45.29"/>
        </g>
      </g>
      <g>
        <g>
          <polygon class="cls-9" points="31.79 56.11 30.92 59.3 27.74 60.18 30.92 61.05 31.79 64.25 32.66 61.05 35.83 60.18 32.66 59.3 31.79 56.11"/>
          <polygon class="cls-5" points="45.67 56.11 44.8 59.3 41.63 60.18 44.8 61.05 45.67 64.25 46.54 61.05 49.71 60.18 46.54 59.3 45.67 56.11"/>
          <polygon class="cls-9" points="59.55 56.11 58.68 59.3 55.51 60.18 58.68 61.05 59.55 64.25 60.43 61.05 63.6 60.18 60.43 59.3 59.55 56.11"/>
          <polygon class="cls-5" points="73.44 56.11 72.57 59.3 69.4 60.18 72.57 61.05 73.44 64.25 74.31 61.05 77.48 60.18 74.31 59.3 73.44 56.11"/>
          <polygon class="cls-9" points="87.32 56.11 86.45 59.3 83.28 60.18 86.45 61.05 87.32 64.25 88.19 61.05 91.36 60.18 88.19 59.3 87.32 56.11"/>
          <polygon class="cls-5" points="101.21 56.11 100.33 59.3 97.16 60.18 100.33 61.05 101.21 64.25 102.08 61.05 105.25 60.18 102.08 59.3 101.21 56.11"/>
          <polygon class="cls-9" points="115.96 59.3 115.09 56.11 114.22 59.3 111.05 60.18 114.22 61.05 115.09 64.25 115.96 61.05 119.13 60.18 115.96 59.3"/>
        </g>
        <g>
          <polygon class="cls-5" points="115.09 70.12 115.96 73.31 119.13 74.19 115.96 75.07 115.09 78.26 114.22 75.07 111.05 74.19 114.22 73.31 115.09 70.12"/>
          <polygon class="cls-9" points="101.21 70.12 102.08 73.31 105.25 74.19 102.08 75.07 101.21 78.26 100.33 75.07 97.16 74.19 100.33 73.31 101.21 70.12"/>
          <polygon class="cls-5" points="87.32 70.12 88.19 73.31 91.36 74.19 88.19 75.07 87.32 78.26 86.45 75.07 83.28 74.19 86.45 73.31 87.32 70.12"/>
          <polygon class="cls-9" points="73.44 70.12 74.31 73.31 77.48 74.19 74.31 75.07 73.44 78.26 72.57 75.07 69.4 74.19 72.57 73.31 73.44 70.12"/>
          <polygon class="cls-5" points="59.55 70.12 60.43 73.31 63.6 74.19 60.43 75.07 59.55 78.26 58.68 75.07 55.51 74.19 58.68 73.31 59.55 70.12"/>
          <polygon class="cls-9" points="45.67 70.12 46.54 73.31 49.71 74.19 46.54 75.07 45.67 78.26 44.8 75.07 41.63 74.19 44.8 73.31 45.67 70.12"/>
          <polygon class="cls-5" points="30.92 73.31 31.79 70.12 32.66 73.31 35.83 74.19 32.66 75.07 31.79 78.26 30.92 75.07 27.74 74.19 30.92 73.31"/>
        </g>
      </g>
      <g>
        <g>
          <polygon class="cls-9" points="31.79 84.13 30.92 87.32 27.74 88.2 30.92 89.08 31.79 92.27 32.66 89.08 35.83 88.2 32.66 87.32 31.79 84.13"/>
          <polygon class="cls-5" points="45.67 84.13 44.8 87.32 41.63 88.2 44.8 89.08 45.67 92.27 46.54 89.08 49.71 88.2 46.54 87.32 45.67 84.13"/>
          <polygon class="cls-9" points="59.55 84.13 58.68 87.32 55.51 88.2 58.68 89.08 59.55 92.27 60.43 89.08 63.6 88.2 60.43 87.32 59.55 84.13"/>
          <polygon class="cls-5" points="73.44 84.13 72.57 87.32 69.4 88.2 72.57 89.08 73.44 92.27 74.31 89.08 77.48 88.2 74.31 87.32 73.44 84.13"/>
          <polygon class="cls-9" points="87.32 84.13 86.45 87.32 83.28 88.2 86.45 89.08 87.32 92.27 88.19 89.08 91.36 88.2 88.19 87.32 87.32 84.13"/>
          <polygon class="cls-5" points="101.21 84.13 100.33 87.32 97.16 88.2 100.33 89.08 101.21 92.27 102.08 89.08 105.25 88.2 102.08 87.32 101.21 84.13"/>
          <polygon class="cls-9" points="115.96 87.32 115.09 84.13 114.22 87.32 111.05 88.2 114.22 89.08 115.09 92.27 115.96 89.08 119.13 88.2 115.96 87.32"/>
        </g>
        <g>
          <polygon class="cls-5" points="115.09 98.14 115.96 101.33 119.13 102.21 115.96 103.09 115.09 106.28 114.22 103.09 111.05 102.21 114.22 101.33 115.09 98.14"/>
          <polygon class="cls-9" points="101.21 98.14 102.08 101.33 105.25 102.21 102.08 103.09 101.21 106.28 100.33 103.09 97.16 102.21 100.33 101.33 101.21 98.14"/>
          <polygon class="cls-5" points="87.32 98.14 88.19 101.33 91.36 102.21 88.19 103.09 87.32 106.28 86.45 103.09 83.28 102.21 86.45 101.33 87.32 98.14"/>
          <polygon class="cls-9" points="73.44 98.14 74.31 101.33 77.48 102.21 74.31 103.09 73.44 106.28 72.57 103.09 69.4 102.21 72.57 101.33 73.44 98.14"/>
          <polygon class="cls-5" points="59.55 98.14 60.43 101.33 63.6 102.21 60.43 103.09 59.55 106.28 58.68 103.09 55.51 102.21 58.68 101.33 59.55 98.14"/>
          <polygon class="cls-9" points="45.67 98.14 46.54 101.33 49.71 102.21 46.54 103.09 45.67 106.28 44.8 103.09 41.63 102.21 44.8 101.33 45.67 98.14"/>
          <polygon class="cls-5" points="30.92 101.33 31.79 98.14 32.66 101.33 35.83 102.21 32.66 103.09 31.79 106.28 30.92 103.09 27.74 102.21 30.92 101.33"/>
        </g>
      </g>
      <g>
        <g>
          <polygon class="cls-9" points="31.79 112.16 30.92 115.35 27.74 116.22 30.92 117.1 31.79 120.29 32.66 117.1 35.83 116.22 32.66 115.35 31.79 112.16"/>
          <polygon class="cls-5" points="45.67 112.16 44.8 115.35 41.63 116.22 44.8 117.1 45.67 120.29 46.54 117.1 49.71 116.22 46.54 115.35 45.67 112.16"/>
          <polygon class="cls-9" points="59.55 112.16 58.68 115.35 55.51 116.22 58.68 117.1 59.55 120.29 60.43 117.1 63.6 116.22 60.43 115.35 59.55 112.16"/>
          <polygon class="cls-5" points="73.44 112.16 72.57 115.35 69.4 116.22 72.57 117.1 73.44 120.29 74.31 117.1 77.48 116.22 74.31 115.35 73.44 112.16"/>
          <polygon class="cls-9" points="87.32 112.16 86.45 115.35 83.28 116.22 86.45 117.1 87.32 120.29 88.19 117.1 91.36 116.22 88.19 115.35 87.32 112.16"/>
          <polygon class="cls-5" points="101.21 112.16 100.33 115.35 97.16 116.22 100.33 117.1 101.21 120.29 102.08 117.1 105.25 116.22 102.08 115.35 101.21 112.16"/>
          <polygon class="cls-9" points="115.96 115.35 115.09 112.16 114.22 115.35 111.05 116.22 114.22 117.1 115.09 120.29 115.96 117.1 119.13 116.22 115.96 115.35"/>
        </g>
        <g>
          <polygon class="cls-5" points="115.09 126.17 115.96 129.36 119.13 130.23 115.96 131.11 115.09 134.3 114.22 131.11 111.05 130.23 114.22 129.36 115.09 126.17"/>
          <polygon class="cls-9" points="101.21 126.17 102.08 129.36 105.25 130.23 102.08 131.11 101.21 134.3 100.33 131.11 97.16 130.23 100.33 129.36 101.21 126.17"/>
          <polygon class="cls-5" points="87.32 126.17 88.19 129.36 91.36 130.23 88.19 131.11 87.32 134.3 86.45 131.11 83.28 130.23 86.45 129.36 87.32 126.17"/>
          <polygon class="cls-9" points="73.44 126.17 74.31 129.36 77.48 130.23 74.31 131.11 73.44 134.3 72.57 131.11 69.4 130.23 72.57 129.36 73.44 126.17"/>
          <polygon class="cls-5" points="59.55 126.17 60.43 129.36 63.6 130.23 60.43 131.11 59.55 134.3 58.68 131.11 55.51 130.23 58.68 129.36 59.55 126.17"/>
          <polygon class="cls-9" points="45.67 126.17 46.54 129.36 49.71 130.23 46.54 131.11 45.67 134.3 44.8 131.11 41.63 130.23 44.8 129.36 45.67 126.17"/>
          <polygon class="cls-5" points="30.92 129.36 31.79 126.17 32.66 129.36 35.83 130.23 32.66 131.11 31.79 134.3 30.92 131.11 27.74 130.23 30.92 129.36"/>
        </g>
      </g>
      <g>
        <g>
          <polygon class="cls-9" points="31.79 140.18 30.92 143.37 27.74 144.24 30.92 145.12 31.79 148.31 32.66 145.12 35.83 144.24 32.66 143.37 31.79 140.18"/>
          <polygon class="cls-5" points="45.67 140.18 44.8 143.37 41.63 144.24 44.8 145.12 45.67 148.31 46.54 145.12 49.71 144.24 46.54 143.37 45.67 140.18"/>
          <polygon class="cls-9" points="59.55 140.18 58.68 143.37 55.51 144.24 58.68 145.12 59.55 148.31 60.43 145.12 63.6 144.24 60.43 143.37 59.55 140.18"/>
          <polygon class="cls-5" points="73.44 140.18 72.57 143.37 69.4 144.24 72.57 145.12 73.44 148.31 74.31 145.12 77.48 144.24 74.31 143.37 73.44 140.18"/>
          <polygon class="cls-9" points="87.32 140.18 86.45 143.37 83.28 144.24 86.45 145.12 87.32 148.31 88.19 145.12 91.36 144.24 88.19 143.37 87.32 140.18"/>
          <polygon class="cls-5" points="101.21 140.18 100.33 143.37 97.16 144.24 100.33 145.12 101.21 148.31 102.08 145.12 105.25 144.24 102.08 143.37 101.21 140.18"/>
          <polygon class="cls-9" points="115.96 143.37 115.09 140.18 114.22 143.37 111.05 144.24 114.22 145.12 115.09 148.31 115.96 145.12 119.13 144.24 115.96 143.37"/>
        </g>
        <g>
          <polygon class="cls-5" points="115.09 154.19 115.96 157.38 119.13 158.26 115.96 159.13 115.09 162.32 114.22 159.13 111.05 158.26 114.22 157.38 115.09 154.19"/>
          <polygon class="cls-9" points="101.21 154.19 102.08 157.38 105.25 158.26 102.08 159.13 101.21 162.32 100.33 159.13 97.16 158.26 100.33 157.38 101.21 154.19"/>
          <polygon class="cls-5" points="87.32 154.19 88.19 157.38 91.36 158.26 88.19 159.13 87.32 162.32 86.45 159.13 83.28 158.26 86.45 157.38 87.32 154.19"/>
          <polygon class="cls-9" points="73.44 154.19 74.31 157.38 77.48 158.26 74.31 159.13 73.44 162.32 72.57 159.13 69.4 158.26 72.57 157.38 73.44 154.19"/>
          <polygon class="cls-5" points="59.55 154.19 60.43 157.38 63.6 158.26 60.43 159.13 59.55 162.32 58.68 159.13 55.51 158.26 58.68 157.38 59.55 154.19"/>
          <polygon class="cls-9" points="45.67 154.19 46.54 157.38 49.71 158.26 46.54 159.13 45.67 162.32 44.8 159.13 41.63 158.26 44.8 157.38 45.67 154.19"/>
          <polygon class="cls-5" points="30.92 157.38 31.79 154.19 32.66 157.38 35.83 158.26 32.66 159.13 31.79 162.32 30.92 159.13 27.74 158.26 30.92 157.38"/>
        </g>
      </g>
      <g>
        <polygon class="cls-9" points="31.79 168.2 30.92 171.39 27.74 172.27 30.92 173.14 31.79 176.33 32.66 173.14 35.83 172.27 32.66 171.39 31.79 168.2"/>
        <polygon class="cls-5" points="45.67 168.2 44.8 171.39 41.63 172.27 44.8 173.14 45.67 176.33 46.54 173.14 49.71 172.27 46.54 171.39 45.67 168.2"/>
        <polygon class="cls-9" points="59.55 168.2 58.68 171.39 55.51 172.27 58.68 173.14 59.55 176.33 60.43 173.14 63.6 172.27 60.43 171.39 59.55 168.2"/>
        <polygon class="cls-5" points="73.44 168.2 72.57 171.39 69.4 172.27 72.57 173.14 73.44 176.33 74.31 173.14 77.48 172.27 74.31 171.39 73.44 168.2"/>
        <polygon class="cls-9" points="87.32 168.2 86.45 171.39 83.28 172.27 86.45 173.14 87.32 176.33 88.19 173.14 91.36 172.27 88.19 171.39 87.32 168.2"/>
        <polygon class="cls-5" points="101.21 168.2 100.33 171.39 97.16 172.27 100.33 173.14 101.21 176.33 102.08 173.14 105.25 172.27 102.08 171.39 101.21 168.2"/>
        <polygon class="cls-9" points="115.96 171.39 115.09 168.2 114.22 171.39 111.05 172.27 114.22 173.14 115.09 176.33 115.96 173.14 119.13 172.27 115.96 171.39"/>
      </g>
      <g>
        <rect class="cls-4" x="24.85" y="25.15" width="13.88" height="14.01" transform="translate(-13.43 31.89) rotate(-45)"/>
        <rect class="cls-4" x="52.61" y="25.15" width="13.88" height="14.01" transform="translate(-5.29 51.53) rotate(-45)"/>
        <rect class="cls-4" x="80.38" y="25.15" width="13.88" height="14.01" transform="translate(2.84 71.16) rotate(-45)"/>
        <rect class="cls-4" x="108.15" y="25.15" width="13.88" height="14.01" transform="translate(10.97 90.8) rotate(-45)"/>
      </g>
      <g>
        <rect class="cls-4" x="24.85" y="53.17" width="13.88" height="14.01" transform="translate(-33.24 40.1) rotate(-45)"/>
        <rect class="cls-4" x="52.61" y="53.17" width="13.88" height="14.01" transform="translate(-25.11 59.74) rotate(-45)"/>
        <rect class="cls-4" x="80.38" y="53.17" width="13.88" height="14.01" transform="translate(-16.98 79.37) rotate(-45)"/>
        <rect class="cls-3" x="108.15" y="53.17" width="13.88" height="14.01" transform="translate(-8.84 99.01) rotate(-45)"/>
      </g>
      <g>
        <g>
          <rect class="cls-2" x="38.77" y="39.21" width="13.88" height="14.01" transform="translate(-19.29 45.86) rotate(-45)"/>
          <rect class="cls-2" x="66.54" y="39.21" width="13.88" height="14.01" transform="translate(-11.16 65.49) rotate(-45)"/>
          <rect class="cls-2" x="94.3" y="39.21" width="13.88" height="14.01" transform="translate(-3.02 85.13) rotate(-45)"/>
        </g>
        <g>
          <rect class="cls-2" x="38.77" y="67.18" width="13.88" height="14.01" transform="translate(-39.07 54.05) rotate(-45)"/>
          <rect class="cls-2" x="66.54" y="67.18" width="13.88" height="14.01" transform="translate(-30.94 73.69) rotate(-45)"/>
          <rect class="cls-2" x="94.3" y="67.18" width="13.88" height="14.01" transform="translate(-22.81 93.32) rotate(-45)"/>
        </g>
        <g>
          <rect class="cls-2" x="38.77" y="95.16" width="13.88" height="14.01" transform="translate(-58.85 62.25) rotate(-45)"/>
          <rect class="cls-2" x="66.54" y="95.16" width="13.88" height="14.01" transform="translate(-50.72 81.88) rotate(-45)"/>
          <rect class="cls-2" x="94.3" y="95.16" width="13.88" height="14.01" transform="translate(-42.59 101.51) rotate(-45)"/>
        </g>
        <g>
          <rect class="cls-2" x="38.77" y="123.14" width="13.88" height="14.01" transform="translate(-78.64 70.44) rotate(-45)"/>
          <rect class="cls-2" x="66.54" y="123.14" width="13.88" height="14.01" transform="translate(-70.5 90.07) rotate(-45)"/>
          <rect class="cls-2" x="94.3" y="123.14" width="13.88" height="14.01" transform="translate(-62.37 109.71) rotate(-45)"/>
        </g>
        <g>
          <rect class="cls-2" x="38.77" y="151.11" width="13.88" height="14.01" transform="translate(-98.42 78.63) rotate(-45)"/>
          <rect class="cls-2" x="66.54" y="151.11" width="13.88" height="14.01" transform="translate(-90.29 98.27) rotate(-45)"/>
          <rect class="cls-2" x="94.3" y="151.11" width="13.88" height="14.01" transform="translate(-82.15 117.9) rotate(-45)"/>
        </g>
      </g>
      <g>
        <rect class="cls-4" x="24.85" y="81.19" width="13.88" height="14.01" transform="translate(-53.06 48.31) rotate(-45)"/>
        <rect class="cls-4" x="52.61" y="81.19" width="13.88" height="14.01" transform="translate(-44.92 67.95) rotate(-45)"/>
        <rect class="cls-4" x="80.38" y="81.19" width="13.88" height="14.01" transform="translate(-36.79 87.58) rotate(-45)"/>
        <rect class="cls-4" x="108.15" y="81.19" width="13.88" height="14.01" transform="translate(-28.66 107.21) rotate(-45)"/>
      </g>
      <g>
        <rect class="cls-4" x="24.85" y="109.22" width="13.88" height="14.01" transform="translate(-72.87 56.52) rotate(-45)"/>
        <rect class="cls-4" x="52.61" y="109.22" width="13.88" height="14.01" transform="translate(-64.74 76.15) rotate(-45)"/>
        <rect class="cls-4" x="80.38" y="109.22" width="13.88" height="14.01" transform="translate(-56.61 95.79) rotate(-45)"/>
        <rect class="cls-4" x="108.15" y="109.22" width="13.88" height="14.01" transform="translate(-48.47 115.42) rotate(-45)"/>
      </g>
      <g>
        <rect class="cls-4" x="24.85" y="137.24" width="13.88" height="14.01" transform="translate(-92.69 64.72) rotate(-45)"/>
        <rect class="cls-4" x="52.61" y="137.24" width="13.88" height="14.01" transform="translate(-84.55 84.36) rotate(-45)"/>
        <rect class="cls-4" x="80.38" y="137.24" width="13.88" height="14.01" transform="translate(-76.42 103.99) rotate(-45)"/>
        <rect class="cls-4" x="108.15" y="137.24" width="13.88" height="14.01" transform="translate(-68.29 123.63) rotate(-45)"/>
      </g>
      <g>
        <rect class="cls-4" x="24.85" y="165.26" width="13.88" height="14.01" transform="translate(-112.5 72.93) rotate(-45)"/>
        <rect class="cls-4" x="52.61" y="165.26" width="13.88" height="14.01" transform="translate(-104.37 92.57) rotate(-45)"/>
        <rect class="cls-4" x="80.38" y="165.26" width="13.88" height="14.01" transform="translate(-96.24 112.2) rotate(-45)"/>
        <rect class="cls-4" x="108.15" y="165.26" width="13.88" height="14.01" transform="translate(-88.1 131.84) rotate(-45)"/>
      </g>
      <polygon class="cls-4" points="115.09 18.14 101.21 18.14 87.32 18.14 73.44 18.14 73.44 18.14 59.55 18.14 45.67 18.14 31.79 18.14 17.9 18.14 17.9 32.16 17.9 46.17 17.9 60.18 17.9 74.19 17.9 88.2 17.9 102.21 17.9 116.22 17.9 130.23 17.9 144.24 17.9 158.26 17.9 172.27 17.9 186.28 31.79 186.28 45.67 186.28 59.55 186.28 73.44 186.28 73.44 186.28 87.32 186.28 101.21 186.28 115.09 186.28 128.97 186.28 128.97 172.27 128.97 158.26 128.97 144.24 128.97 130.23 128.97 116.22 128.97 102.21 128.97 88.2 128.97 74.19 128.97 60.18 128.97 46.17 128.97 32.16 128.97 18.14 115.09 18.14"/>
    </g>
  </g>
</svg>