<?xml version="1.0" encoding="UTF-8"?>
<svg id="Layer_1" xmlns="http://www.w3.org/2000/svg" version="1.1" viewBox="0 0 375.6 581.5">
  <!-- Generator: Adobe Illustrator 30.3.0, SVG Export Plug-In . SVG Version: 2.1.3 Build 182)  -->
  <defs>
    <style>
      .st0 {
        fill: #c7e94b;
      }

      .st1 {
        fill: #09294f;
      }

      .st2 {
        fill: #efe8d6;
      }
    </style>
  </defs>
  <path class="st2" d="M33.5,581.5h308.6c18.4,0,33.5-15.1,33.5-33.5V33.7c0-18.4-15.1-33.5-33.5-33.5H33.5C15.1.2,0,15.3,0,33.7v514.3c0,18.4,15.1,33.5,33.5,33.5Z"/>
  <path class="st0" d="M55.3,545.3h264.6c12.9,0,23.5-10.6,23.5-23.5V59.7c0-12.9-10.6-23.5-23.5-23.5H55.3c-12.9,0-23.5,10.6-23.5,23.5v462.1c0,12.9,10.6,23.5,23.5,23.5Z"/>
  <path class="st1" d="M55.5,46h263.4c8,0,14.5,6.5,14.5,14.5v460.5c0,8-6.5,14.5-14.5,14.5H55.5c-8,0-14.5-6.5-14.5-14.5V60.5c0-8,6.5-14.5,14.5-14.5M55.5,41.4c-10.5,0-19.1,8.6-19.1,19.1v460.5c0,10.5,8.6,19.1,19.1,19.1h263.4c10.5,0,19.1-8.6,19.1-19.1V60.5c0-10.5-8.6-19.1-19.1-19.1H55.5Z"/>
  <g>
    <path class="st1" d="M166.8,290.7c0,11.3,9.2,20.5,20.5,20.5,11.3,0,20.5-9.2,20.5-20.5,0-11.3-9.2-20.5-20.5-20.5-11.3,0-20.5,9.2-20.5,20.5ZM170.2,290.7c0-9.5,7.7-17.2,17.2-17.2,9.5,0,17.2,7.7,17.2,17.2,0,9.5-7.7,17.2-17.2,17.2-9.5,0-17.2-7.7-17.2-17.2Z"/>
    <path class="st1" d="M175.9,290.7c0,6.3,5.1,11.4,11.4,11.4,6.3,0,11.4-5.1,11.4-11.4,0-6.3-5.1-11.4-11.4-11.4-6.3,0-11.4,5.1-11.4,11.4ZM180.4,290.7c0-3.8,3.1-6.9,6.9-6.9,3.8,0,6.9,3.1,6.9,6.9,0,3.8-3.1,6.9-6.9,6.9-3.8,0-6.9-3.1-6.9-6.9Z"/>
    <path class="st1" d="M133.3,260.4c0,3.2,2.6,5.8,5.8,5.8,3.2,0,5.8-2.6,5.8-5.8s-2.6-5.8-5.8-5.8c-3.2,0-5.8,2.6-5.8,5.8ZM136.7,260.4c0-1.3,1.1-2.4,2.4-2.4s2.4,1.1,2.4,2.4-1.1,2.4-2.4,2.4c-1.3,0-2.4-1.1-2.4-2.4Z"/>
    <path class="st1" d="M156.2,290.7c0,17.2,13.9,31.2,31.2,31.2,17.2,0,31.2-13.9,31.2-31.2,0-17.2-13.9-31.2-31.2-31.2-17.2,0-31.2,13.9-31.2,31.2ZM160.7,290.7c0-14.7,12-26.7,26.7-26.7,14.7,0,26.7,12,26.7,26.7,0,14.7-12,26.7-26.7,26.7-14.7,0-26.7-12-26.7-26.7Z"/>
    <path class="st1" d="M95.7,229.1c0-3.9-3.2-7.1-7.1-7.1-3.9,0-7.1,3.2-7.1,7.1,0,3.9,3.2,7.1,7.1,7.1,3.9,0,7.1-3.2,7.1-7.1ZM92.4,229.1c0,2.1-1.7,3.7-3.7,3.7-2.1,0-3.7-1.7-3.7-3.7s1.7-3.7,3.7-3.7,3.7,1.7,3.7,3.7Z"/>
    <path class="st1" d="M284.8,221.6c-3.9,0-7.1,3.2-7.1,7.1,0,3.9,3.2,7.1,7.1,7.1s7.1-3.2,7.1-7.1c0-3.9-3.2-7.1-7.1-7.1ZM284.8,225c2.1,0,3.7,1.7,3.7,3.7,0,2.1-1.7,3.7-3.7,3.7s-3.7-1.7-3.7-3.7c0-2.1,1.7-3.7,3.7-3.7Z"/>
    <path class="st1" d="M207.1,207.1c0-.9,1.7-19.9-19-48.4l-1.8-2.5-1.8,2.5c-20.7,28.5-20.2,47.5-20.1,48.3h.2c0,11.7,9.6,21.2,21.3,21.2,11.7,0,21.2-9.4,21.3-21.1ZM202.7,206.6l2.2.2h-2.2c0,9.3-7.5,16.8-16.8,16.8-9.3,0-16.8-7.5-16.8-16.8h-2.4s2.2,0,2.2,0c0-.2-.4-17.2,17.5-43,17.8,25.6,16.4,42.6,16.4,42.8Z"/>
    <path class="st1" d="M195.8,206.6c0-5.9-4.8-10.6-10.6-10.6-5.9,0-10.6,4.8-10.6,10.6s4.8,10.6,10.6,10.6c5.9,0,10.6-4.8,10.6-10.6ZM192.5,206.6c0,4-3.3,7.3-7.3,7.3-4,0-7.3-3.3-7.3-7.3,0-4,3.3-7.3,7.3-7.3s7.3,3.3,7.3,7.3Z"/>
    <path class="st1" d="M186.3,191.8c-2,0-3.6-1.6-3.6-3.6,0-2,1.6-3.6,3.6-3.6s3.6,1.6,3.6,3.6c0,2-1.6,3.6-3.6,3.6Z"/>
    <path class="st1" d="M186.3,117.7c2,0,3.6,1.6,3.6,3.6,0,2-1.6,3.6-3.6,3.6-2,0-3.6-1.6-3.6-3.6,0-2,1.6-3.6,3.6-3.6Z"/>
    <path class="st1" d="M112.6,279.4c0,2-1.6,3.6-3.6,3.6s-3.6-1.6-3.6-3.6c0-2,1.6-3.6,3.6-3.6,2,0,3.6,1.6,3.6,3.6Z"/>
    <path class="st1" d="M186.3,180.5c-1.4,0-2.6-1.2-2.6-2.6,0-1.4,1.2-2.6,2.6-2.6s2.6,1.2,2.6,2.6c0,1.4-1.2,2.6-2.6,2.6Z"/>
    <circle class="st1" cx="65" cy="249.9" r="1.6"/>
    <path class="st1" d="M61.6,241.1c.9,0,1.6.7,1.6,1.6s-.7,1.6-1.6,1.6-1.6-.7-1.6-1.6c0-.9.7-1.6,1.6-1.6Z"/>
    <circle class="st1" cx="109" cy="302.1" r="1.6"/>
    <circle class="st1" cx="263.8" cy="303.7" r="1.6"/>
    <path class="st1" d="M185.2,208.2c-.9,0-1.6-.7-1.6-1.6s.7-1.6,1.6-1.6,1.6.7,1.6,1.6c0,.9-.7,1.6-1.6,1.6Z"/>
    <path class="st1" d="M174.6,373.8c0,5.9,4.8,10.6,10.6,10.6,5.9,0,10.6-4.8,10.6-10.6,0-5.9-4.8-10.6-10.6-10.6-5.9,0-10.6,4.8-10.6,10.6ZM177.9,373.8c0-4,3.3-7.3,7.3-7.3,4,0,7.3,3.3,7.3,7.3,0,4-3.3,7.3-7.3,7.3-4,0-7.3-3.3-7.3-7.3Z"/>
    <path class="st1" d="M186.3,388.6c2,0,3.6,1.6,3.6,3.6s-1.6,3.6-3.6,3.6-3.6-1.6-3.6-3.6c0-2,1.6-3.6,3.6-3.6Z"/>
    <path class="st1" d="M186.3,399.9c1.4,0,2.6,1.2,2.6,2.6s-1.2,2.6-2.6,2.6-2.6-1.2-2.6-2.6c0-1.4,1.2-2.6,2.6-2.6Z"/>
    <path class="st1" d="M187.4,287.9c1.4,0,2.6,1.2,2.6,2.6,0,1.4-1.2,2.6-2.6,2.6s-2.6-1.2-2.6-2.6c0-1.4,1.2-2.6,2.6-2.6Z"/>
    <path class="st1" d="M185.2,372.2c.9,0,1.6.7,1.6,1.6s-.7,1.6-1.6,1.6-1.6-.7-1.6-1.6.7-1.6,1.6-1.6Z"/>
    <path class="st1" d="M110.6,240.5c0-1.2,1-2.2,2.2-2.2,1.2,0,2.2,1,2.2,2.2,0,1.2-1,2.2-2.2,2.2s-2.2-1-2.2-2.2Z"/>
    <path class="st1" d="M109.5,245.5c1.2,0,2.2,1,2.2,2.2s-1,2.2-2.2,2.2c-1.2,0-2.2-1-2.2-2.2,0-1.2,1-2.2,2.2-2.2Z"/>
    <circle class="st1" cx="126.1" cy="181.4" r="2.7"/>
    <circle class="st1" cx="89.3" cy="125.3" r="2.7"/>
    <circle class="st1" cx="50.7" cy="125.3" r="2.7"/>
    <path class="st1" d="M323.5,128c-1.5,0-2.7-1.2-2.7-2.7,0-1.5,1.2-2.7,2.7-2.7s2.7,1.2,2.7,2.7c0,1.5-1.2,2.7-2.7,2.7Z"/>
    <path class="st1" d="M50.7,454.5c1.5,0,2.7,1.2,2.7,2.7s-1.2,2.7-2.7,2.7-2.7-1.2-2.7-2.7,1.2-2.7,2.7-2.7Z"/>
    <path class="st1" d="M320.8,457.2c0-1.5,1.2-2.7,2.7-2.7s2.7,1.2,2.7,2.7c0,1.5-1.2,2.7-2.7,2.7s-2.7-1.2-2.7-2.7Z"/>
    <circle class="st1" cx="281.4" cy="125.3" r="2.7"/>
    <path class="st1" d="M119.7,184.6c2.7,0,4.8,2.2,4.8,4.8s-2.2,4.8-4.8,4.8-4.8-2.2-4.8-4.8,2.2-4.8,4.8-4.8Z"/>
    <path class="st1" d="M108.4,190.8c1.9,0,3.4,1.5,3.4,3.4,0,1.9-1.5,3.4-3.4,3.4-1.9,0-3.4-1.5-3.4-3.4,0-1.9,1.5-3.4,3.4-3.4Z"/>
    <path class="st1" d="M98.5,184.8c1.5,0,2.7,1.2,2.7,2.7,0,1.5-1.2,2.7-2.7,2.7-1.5,0-2.7-1.2-2.7-2.7,0-1.5,1.2-2.7,2.7-2.7Z"/>
    <path class="st1" d="M95.6,176.8c0,1.5-1.2,2.7-2.7,2.7s-2.7-1.2-2.7-2.7c0-1.5,1.2-2.7,2.7-2.7s2.7,1.2,2.7,2.7Z"/>
    <circle class="st1" cx="94" cy="166.2" r="2.7"/>
    <circle class="st1" cx="99.6" cy="156.1" r="2.7"/>
    <path class="st1" d="M109.5,153.4c-1.5,0-2.7-1.2-2.7-2.7,0-1.5,1.2-2.7,2.7-2.7s2.7,1.2,2.7,2.7c0,1.5-1.2,2.7-2.7,2.7Z"/>
    <circle class="st1" cx="119.7" cy="149.1" r="2.7"/>
    <circle class="st1" cx="129.6" cy="151.8" r="2.7"/>
    <path class="st1" d="M137.4,164.2c-1.5,0-2.7-1.2-2.7-2.7,0-1.5,1.2-2.7,2.7-2.7s2.7,1.2,2.7,2.7c0,1.5-1.2,2.7-2.7,2.7Z"/>
    <path class="st1" d="M139.4,173.6c0-1.5,1.2-2.7,2.7-2.7s2.7,1.2,2.7,2.7c0,1.5-1.2,2.7-2.7,2.7s-2.7-1.2-2.7-2.7Z"/>
    <circle class="st1" cx="113.3" cy="233.8" r="1.6"/>
    <circle class="st1" cx="111.7" cy="226.5" r="1.6"/>
    <path class="st1" d="M108.4,221.8c-.9,0-1.6-.7-1.6-1.6s.7-1.6,1.6-1.6c.9,0,1.6.7,1.6,1.6s-.7,1.6-1.6,1.6Z"/>
    <circle class="st1" cx="103.1" cy="214.4" r="1.1"/>
    <path class="st1" d="M58.8,234.3c.6,0,1.1.5,1.1,1.1s-.5,1.1-1.1,1.1-1.1-.5-1.1-1.1.5-1.1,1.1-1.1Z"/>
    <circle class="st1" cx="98.5" cy="211.6" r="1.1"/>
    <circle class="st1" cx="92.9" cy="210.1" r="1.1"/>
    <circle class="st1" cx="86.7" cy="209.9" r=".9"/>
    <path class="st1" d="M57.7,228.2c.5,0,.9.4.9.9s-.4.9-.9.9-.9-.4-.9-.9.4-.9.9-.9Z"/>
    <circle class="st1" cx="81" cy="211.3" r=".9"/>
    <path class="st1" d="M207.1,374.2c0-5.8-2.4-11.1-6.3-14.9-3.9-3.9-9.2-6.3-15.1-6.3-11.7,0-21.3,9.6-21.3,21.3h.1s0,0,0,0h-.2c0,.8-.6,19.8,20.1,48.3l1.8,2.5,1.8-2.5c20.7-28.5,19.1-47.6,19-48.4ZM168.9,374.5h-2.2c0,0,2.4,0,2.4,0h0c0-9.3,7.5-16.8,16.8-16.8,4.6,0,8.8,1.9,11.8,4.9,3,3,4.9,7.2,4.9,11.8h.1s0,0,0,.1h2.2s-2.2.2-2.2.2c0,.2,1.4,17.2-16.4,42.8-17.9-25.7-17.5-42.8-17.5-43Z"/>
    <path class="st1" d="M85.5,260c-9.6,0-16.7-4.5-16.7-4.5,8.5,16.8,13.3,22,13.3,22,11.1-12.1,17.7-19.6,21-23.3-6.1,4.3-12.2,5.7-17.6,5.7ZM76.1,262.1c2.7.7,5.9,1.3,9.4,1.3,1.8,0,3.5-.1,5.3-.4-2.4,2.7-5.2,5.8-8.4,9.3-1.4-2.1-3.5-5.3-6.2-10.2Z"/>
    <path class="st1" d="M69.6,200.8c.5-10.6,6-21.2,6-21.2,0,8.4,6.8,15.7,6.6,15.7-9.6-1.1-12.6,5.5-12.6,5.5Z"/>
    <path class="st1" d="M125,214.4s1.6,16.7,31.2,35.9c0,0-24-19-21.5-42.6,0,0-4,5.8-9.7,6.7ZM131.4,215.5c.4,3.4,1.2,6.8,2.5,10.2-2.7-3.8-4.1-6.9-4.8-9,.8-.4,1.6-.8,2.3-1.2Z"/>
    <path class="st1" d="M134.7,240.5c-6.4,0-9.7,6.3-9.7,6.3,2.3-4.5,3.3-14.5,3.3-14.5.7,4.2,6.4,8.3,6.4,8.3Z"/>
    <polygon class="st1" points="128.8 290.7 128.8 290.7 128.8 290.7 128.8 290.7 128.8 290.7 123.6 294.9 119.7 290.7 119.7 290.7 119.7 290.7 119.7 290.7 119.7 290.7 123.6 286.6 128.8 290.7"/>
    <polygon class="st1" points="98.6 291.2 98.6 291.2 98.6 291.2 98.6 291.2 94.8 295.4 90.8 291.2 90.8 291.2 90.8 291.2 90.8 291.2 90.8 291.2 94.8 287 98.6 291.2 98.6 291.2"/>
    <path class="st1" d="M234.8,254.6c-3.2,0-5.8,2.6-5.8,5.8,0,3.2,2.6,5.8,5.8,5.8s5.8-2.6,5.8-5.8-2.6-5.8-5.8-5.8ZM234.8,258c1.3,0,2.4,1.1,2.4,2.4,0,1.3-1.1,2.4-2.4,2.4s-2.4-1.1-2.4-2.4c0-1.3,1.1-2.4,2.4-2.4Z"/>
    <path class="st1" d="M264.9,283c-2,0-3.6-1.6-3.6-3.6s1.6-3.6,3.6-3.6,3.6,1.6,3.6,3.6c0,2-1.6,3.6-3.6,3.6Z"/>
    <circle class="st1" cx="308.9" cy="249.9" r="1.6"/>
    <circle class="st1" cx="312.3" cy="242.7" r="1.6"/>
    <path class="st1" d="M261.1,238.3c1.2,0,2.2,1,2.2,2.2,0,1.2-1,2.2-2.2,2.2-1.2,0-2.2-1-2.2-2.2s1-2.2,2.2-2.2Z"/>
    <path class="st1" d="M264.4,249.9c-1.2,0-2.2-1-2.2-2.2,0-1.2,1-2.2,2.2-2.2s2.2,1,2.2,2.2c0,1.2-1,2.2-2.2,2.2Z"/>
    <circle class="st1" cx="247.7" cy="181.4" r="2.7"/>
    <path class="st1" d="M254.1,194.2c-2.7,0-4.8-2.2-4.8-4.8,0-2.7,2.2-4.8,4.8-4.8s4.8,2.2,4.8,4.8-2.2,4.8-4.8,4.8Z"/>
    <path class="st1" d="M265.5,197.6c-1.9,0-3.4-1.5-3.4-3.4,0-1.9,1.5-3.4,3.4-3.4s3.4,1.5,3.4,3.4c0,1.9-1.5,3.4-3.4,3.4Z"/>
    <path class="st1" d="M275.3,184.8c1.5,0,2.7,1.2,2.7,2.7,0,1.5-1.2,2.7-2.7,2.7s-2.7-1.2-2.7-2.7c0-1.5,1.2-2.7,2.7-2.7Z"/>
    <path class="st1" d="M280.9,174.1c1.5,0,2.7,1.2,2.7,2.7,0,1.5-1.2,2.7-2.7,2.7-1.5,0-2.7-1.2-2.7-2.7,0-1.5,1.2-2.7,2.7-2.7Z"/>
    <circle class="st1" cx="279.8" cy="166.2" r="2.7"/>
    <circle class="st1" cx="274.2" cy="156.1" r="2.7"/>
    <circle class="st1" cx="264.4" cy="150.7" r="2.7"/>
    <circle class="st1" cx="254.1" cy="149.1" r="2.7"/>
    <circle class="st1" cx="244.2" cy="151.8" r="2.7"/>
    <path class="st1" d="M233.7,161.4c0-1.5,1.2-2.7,2.7-2.7,1.5,0,2.7,1.2,2.7,2.7,0,1.5-1.2,2.7-2.7,2.7s-2.7-1.2-2.7-2.7Z"/>
    <path class="st1" d="M231.7,176.3c-1.5,0-2.7-1.2-2.7-2.7,0-1.5,1.2-2.7,2.7-2.7s2.7,1.2,2.7,2.7-1.2,2.7-2.7,2.7Z"/>
    <circle class="st1" cx="260.6" cy="233.8" r="1.6"/>
    <circle class="st1" cx="262.2" cy="226.5" r="1.6"/>
    <path class="st1" d="M265.4,218.6c.9,0,1.6.7,1.6,1.6s-.7,1.6-1.6,1.6-1.6-.7-1.6-1.6.7-1.6,1.6-1.6Z"/>
    <circle class="st1" cx="270.7" cy="214.4" r="1.1"/>
    <path class="st1" d="M316.2,235.4c0,.6-.5,1.1-1.1,1.1s-1.1-.5-1.1-1.1.5-1.1,1.1-1.1,1.1.5,1.1,1.1Z"/>
    <circle class="st1" cx="275.3" cy="211.6" r="1.1"/>
    <circle class="st1" cx="280.9" cy="210.1" r="1.1"/>
    <path class="st1" d="M287.2,209c.5,0,.9.4.9.9s-.4.9-.9.9-.9-.4-.9-.9c0-.5.4-.9.9-.9Z"/>
    <path class="st1" d="M316.2,230c-.5,0-.9-.4-.9-.9s.4-.9.9-.9.9.4.9.9-.4.9-.9.9Z"/>
    <circle class="st1" cx="292.8" cy="211.3" r=".9"/>
    <path class="st1" d="M291.8,277.5s4.7-5.2,13.3-22c0,0-7.1,4.5-16.7,4.5-5.4,0-11.5-1.4-17.6-5.7,3.3,3.7,10,11.1,21,23.3ZM297.7,262.1c-2.7,4.8-4.8,8.1-6.2,10.2-3.2-3.5-6-6.6-8.4-9.3,1.7.3,3.5.4,5.3.4,3.5,0,6.7-.5,9.4-1.3Z"/>
    <path class="st1" d="M304.3,200.8s-3-6.6-12.6-5.5c-.2,0,6.6-7.3,6.6-15.7,0,0,5.5,10.6,6,21.2Z"/>
    <path class="st1" d="M248.8,214.4c-5.7-.9-9.7-6.7-9.7-6.7,2.5,23.6-21.5,42.6-21.5,42.6,29.6-19.3,31.2-35.9,31.2-35.9ZM240,225.7c1.3-3.4,2.1-6.9,2.5-10.2.7.5,1.5.9,2.3,1.2-.7,2-2.1,5.1-4.8,9Z"/>
    <path class="st1" d="M239.2,240.5s5.7-4.1,6.4-8.3c0,0,1,10.1,3.3,14.5,0,0-3.3-6.3-9.7-6.3Z"/>
    <path class="st1" d="M138.5,317c-3.2,0-5.8,2.6-5.8,5.8,0,3.2,2.6,5.8,5.8,5.8,3.2,0,5.8-2.6,5.8-5.8,0-3.2-2.6-5.8-5.8-5.8ZM138.5,320.4c1.3,0,2.4,1.1,2.4,2.4,0,1.3-1.1,2.4-2.4,2.4s-2.4-1.1-2.4-2.4,1.1-2.4,2.4-2.4Z"/>
    <path class="st1" d="M81,354.1c0,3.9,3.2,7.1,7.1,7.1s7.1-3.2,7.1-7.1c0-3.9-3.2-7.1-7.1-7.1s-7.1,3.2-7.1,7.1ZM84.4,354.1c0-2.1,1.7-3.7,3.7-3.7s3.7,1.7,3.7,3.7-1.7,3.7-3.7,3.7-3.7-1.7-3.7-3.7Z"/>
    <path class="st1" d="M277.2,354.5c0,3.9,3.2,7.1,7.1,7.1,3.9,0,7.1-3.2,7.1-7.1,0-3.9-3.2-7.1-7.1-7.1s-7.1,3.2-7.1,7.1ZM280.5,354.5c0-2.1,1.7-3.7,3.7-3.7,2.1,0,3.7,1.7,3.7,3.7,0,2.1-1.7,3.7-3.7,3.7-2.1,0-3.7-1.7-3.7-3.7Z"/>
    <circle class="st1" cx="64.4" cy="333.3" r="1.6"/>
    <circle class="st1" cx="61.1" cy="340.5" r="1.6"/>
    <path class="st1" d="M112.3,344.9c-1.2,0-2.2-1-2.2-2.2s1-2.2,2.2-2.2c1.2,0,2.2,1,2.2,2.2,0,1.2-1,2.2-2.2,2.2Z"/>
    <path class="st1" d="M108.9,333.3c1.2,0,2.2,1,2.2,2.2s-1,2.2-2.2,2.2-2.2-1-2.2-2.2,1-2.2,2.2-2.2Z"/>
    <circle class="st1" cx="125.6" cy="401.8" r="2.7"/>
    <path class="st1" d="M119.2,389c2.7,0,4.8,2.2,4.8,4.8s-2.2,4.8-4.8,4.8c-2.7,0-4.8-2.2-4.8-4.8s2.2-4.8,4.8-4.8Z"/>
    <path class="st1" d="M107.9,385.6c1.9,0,3.4,1.5,3.4,3.4s-1.5,3.4-3.4,3.4c-1.9,0-3.4-1.5-3.4-3.4,0-1.9,1.5-3.4,3.4-3.4Z"/>
    <path class="st1" d="M98,398.4c-1.5,0-2.7-1.2-2.7-2.7,0-1.5,1.2-2.7,2.7-2.7s2.7,1.2,2.7,2.7-1.2,2.7-2.7,2.7Z"/>
    <path class="st1" d="M92.4,409.1c-1.5,0-2.7-1.2-2.7-2.7s1.2-2.7,2.7-2.7,2.7,1.2,2.7,2.7c0,1.5-1.2,2.7-2.7,2.7Z"/>
    <circle class="st1" cx="93.5" cy="417" r="2.7"/>
    <circle class="st1" cx="99.1" cy="427.1" r="2.7"/>
    <path class="st1" d="M108.9,435.2c-1.5,0-2.7-1.2-2.7-2.7,0-1.5,1.2-2.7,2.7-2.7s2.7,1.2,2.7,2.7c0,1.5-1.2,2.7-2.7,2.7Z"/>
    <path class="st1" d="M119.2,436.9c-1.5,0-2.7-1.2-2.7-2.7,0-1.5,1.2-2.7,2.7-2.7,1.5,0,2.7,1.2,2.7,2.7,0,1.5-1.2,2.7-2.7,2.7Z"/>
    <path class="st1" d="M129.1,434.1c-1.5,0-2.7-1.2-2.7-2.7,0-1.5,1.2-2.7,2.7-2.7s2.7,1.2,2.7,2.7c0,1.5-1.2,2.7-2.7,2.7Z"/>
    <circle class="st1" cx="136.9" cy="421.8" r="2.7"/>
    <path class="st1" d="M141.6,406.9c1.5,0,2.7,1.2,2.7,2.7,0,1.5-1.2,2.7-2.7,2.7s-2.7-1.2-2.7-2.7c0-1.5,1.2-2.7,2.7-2.7Z"/>
    <circle class="st1" cx="112.7" cy="349.4" r="1.6"/>
    <path class="st1" d="M111.1,355.1c.9,0,1.6.7,1.6,1.6s-.7,1.6-1.6,1.6-1.6-.7-1.6-1.6c0-.9.7-1.6,1.6-1.6Z"/>
    <path class="st1" d="M109.5,363c0,.9-.7,1.6-1.6,1.6s-1.6-.7-1.6-1.6.7-1.6,1.6-1.6c.9,0,1.6.7,1.6,1.6Z"/>
    <circle class="st1" cx="102.6" cy="368.8" r="1.1"/>
    <circle class="st1" cx="58.3" cy="347.8" r="1.1"/>
    <circle class="st1" cx="98" cy="371.6" r="1.1"/>
    <circle class="st1" cx="92.4" cy="373" r="1.1"/>
    <path class="st1" d="M86.1,374.2c-.5,0-.9-.4-.9-.9s.4-.9.9-.9.9.4.9.9-.4.9-.9.9Z"/>
    <path class="st1" d="M58,354.1c0,.5-.4.9-.9.9s-.9-.4-.9-.9.4-.9.9-.9.9.4.9.9Z"/>
    <circle class="st1" cx="80.5" cy="371.9" r=".9"/>
    <path class="st1" d="M81.6,305.7s-4.7,5.2-13.3,22c0,0,7.1-4.5,16.7-4.5s11.5,1.4,17.6,5.7c-3.3-3.7-10-11.1-21-23.3ZM75.6,321.1c2.7-4.8,4.8-8.1,6.2-10.2,3.2,3.5,6,6.6,8.4,9.3-1.7-.3-3.5-.4-5.3-.4-3.5,0-6.7.5-9.4,1.3Z"/>
    <path class="st1" d="M69,382.4s3,6.6,12.6,5.5c.2,0-6.6,7.3-6.6,15.7,0,0-5.5-10.6-6-21.2Z"/>
    <path class="st1" d="M155.7,332.8c-29.6,19.3-31.2,35.9-31.2,35.9,5.7.9,9.7,6.7,9.7,6.7-2.5-23.6,21.5-42.6,21.5-42.6ZM133.4,357.5c-1.3,3.4-2.1,6.9-2.5,10.2-.7-.5-1.5-.9-2.3-1.2.7-2,2.1-5.1,4.8-9Z"/>
    <path class="st1" d="M127.7,351s-1-10.1-3.3-14.5c0,0,3.3,6.3,9.7,6.3,0,0-5.7,4.1-6.4,8.3Z"/>
    <path class="st1" d="M234.3,317c-3.2,0-5.8,2.6-5.8,5.8,0,3.2,2.6,5.8,5.8,5.8,3.2,0,5.8-2.6,5.8-5.8s-2.6-5.8-5.8-5.8ZM234.3,320.4c1.3,0,2.4,1.1,2.4,2.4,0,1.3-1.1,2.4-2.4,2.4s-2.4-1.1-2.4-2.4,1.1-2.4,2.4-2.4Z"/>
    <circle class="st1" cx="308.4" cy="333.3" r="1.6"/>
    <circle class="st1" cx="311.7" cy="340.5" r="1.6"/>
    <path class="st1" d="M262.7,342.7c0,1.2-1,2.2-2.2,2.2s-2.2-1-2.2-2.2c0-1.2,1-2.2,2.2-2.2,1.2,0,2.2,1,2.2,2.2Z"/>
    <path class="st1" d="M263.9,337.7c-1.2,0-2.2-1-2.2-2.2,0-1.2,1-2.2,2.2-2.2s2.2,1,2.2,2.2-1,2.2-2.2,2.2Z"/>
    <path class="st1" d="M249.9,401.8c0,1.5-1.2,2.7-2.7,2.7s-2.7-1.2-2.7-2.7c0-1.5,1.2-2.7,2.7-2.7,1.5,0,2.7,1.2,2.7,2.7Z"/>
    <path class="st1" d="M253.6,398.6c-2.7,0-4.8-2.2-4.8-4.8s2.2-4.8,4.8-4.8c2.7,0,4.8,2.2,4.8,4.8s-2.2,4.8-4.8,4.8Z"/>
    <path class="st1" d="M264.9,392.4c-1.9,0-3.4-1.5-3.4-3.4,0-1.9,1.5-3.4,3.4-3.4s3.4,1.5,3.4,3.4c0,1.9-1.5,3.4-3.4,3.4Z"/>
    <path class="st1" d="M274.8,398.4c-1.5,0-2.7-1.2-2.7-2.7,0-1.5,1.2-2.7,2.7-2.7,1.5,0,2.7,1.2,2.7,2.7,0,1.5-1.2,2.7-2.7,2.7Z"/>
    <path class="st1" d="M277.7,406.4c0-1.5,1.2-2.7,2.7-2.7s2.7,1.2,2.7,2.7c0,1.5-1.2,2.7-2.7,2.7s-2.7-1.2-2.7-2.7Z"/>
    <circle class="st1" cx="279.3" cy="417" r="2.7"/>
    <circle class="st1" cx="273.7" cy="427.1" r="2.7"/>
    <path class="st1" d="M263.9,429.8c1.5,0,2.7,1.2,2.7,2.7,0,1.5-1.2,2.7-2.7,2.7s-2.7-1.2-2.7-2.7c0-1.5,1.2-2.7,2.7-2.7Z"/>
    <path class="st1" d="M253.6,436.9c-1.5,0-2.7-1.2-2.7-2.7,0-1.5,1.2-2.7,2.7-2.7s2.7,1.2,2.7,2.7c0,1.5-1.2,2.7-2.7,2.7Z"/>
    <circle class="st1" cx="243.7" cy="431.4" r="2.7"/>
    <circle class="st1" cx="235.9" cy="421.8" r="2.7"/>
    <circle class="st1" cx="231.2" cy="409.6" r="2.7"/>
    <circle class="st1" cx="260" cy="349.4" r="1.6"/>
    <path class="st1" d="M261.6,355.1c.9,0,1.6.7,1.6,1.6s-.7,1.6-1.6,1.6-1.6-.7-1.6-1.6c0-.9.7-1.6,1.6-1.6Z"/>
    <path class="st1" d="M264.9,361.4c.9,0,1.6.7,1.6,1.6s-.7,1.6-1.6,1.6-1.6-.7-1.6-1.6.7-1.6,1.6-1.6Z"/>
    <circle class="st1" cx="270.2" cy="368.8" r="1.1"/>
    <path class="st1" d="M313.4,347.8c0-.6.5-1.1,1.1-1.1s1.1.5,1.1,1.1-.5,1.1-1.1,1.1-1.1-.5-1.1-1.1Z"/>
    <circle class="st1" cx="274.8" cy="371.6" r="1.1"/>
    <circle class="st1" cx="280.4" cy="373" r="1.1"/>
    <circle class="st1" cx="286.7" cy="373.3" r=".9"/>
    <path class="st1" d="M315.7,353.2c.5,0,.9.4.9.9s-.4.9-.9.9-.9-.4-.9-.9.4-.9.9-.9Z"/>
    <circle class="st1" cx="292.3" cy="371.9" r=".9"/>
    <path class="st1" d="M287.8,323.2c9.6,0,16.7,4.5,16.7,4.5-8.5-16.8-13.3-22-13.3-22-11.1,12.1-17.7,19.6-21,23.3,6.1-4.3,12.2-5.7,17.6-5.7ZM287.8,319.9c-1.8,0-3.5.1-5.3.4,2.4-2.7,5.2-5.8,8.4-9.3,1.4,2.1,3.5,5.4,6.2,10.2-2.7-.7-5.9-1.3-9.4-1.3Z"/>
    <path class="st1" d="M303.7,382.4c-.5,10.6-6,21.2-6,21.2,0-8.4-6.8-15.7-6.6-15.7,9.6,1.1,12.6-5.5,12.6-5.5Z"/>
    <path class="st1" d="M238.7,375.5s4-5.8,9.7-6.7c0,0-1.6-16.7-31.2-35.9,0,0,24,19,21.5,42.6ZM239.4,357.4c.5.7.9,1.3,1.3,1.9,1.9,3,3,5.5,3.6,7.2-.8.4-1.6.8-2.3,1.3-.4-3.4-1.2-6.9-2.6-10.3Z"/>
    <path class="st1" d="M238.7,342.7c6.4,0,9.7-6.3,9.7-6.3-2.3,4.5-3.3,14.5-3.3,14.5-.7-4.2-6.4-8.3-6.4-8.3Z"/>
    <polygon class="st1" points="254.1 290.7 250.3 294.9 245 290.7 245 290.7 245 290.7 245 290.7 245 290.7 250.3 286.6 254.1 290.7 254.1 290.7 254.1 290.7 254.1 290.7 254.1 290.7"/>
    <polygon class="st1" points="283 291.2 283 291.2 283 291.2 283 291.2 283 291.2 279.1 295.4 275.3 291.2 275.3 291.2 275.3 291.2 275.3 291.2 275.3 291.2 279.1 287 283 291.2"/>
    <path class="st1" d="M99.7,84.3c0-12.4-10.1-22.5-22.5-22.5-12.4,0-22.5,10.1-22.5,22.5s10.1,22.5,22.5,22.5c12.4,0,22.5-10.1,22.5-22.5ZM95.2,84.3c0,9.9-8.1,18-18,18s-18-8.1-18-18c0-9.9,8.1-18,18-18,9.9,0,18,8.1,18,18Z"/>
    <path class="st1" d="M89.3,84.3c0-6.7-5.4-12.1-12.1-12.1-6.7,0-12.1,5.4-12.1,12.1,0,6.7,5.4,12.1,12.1,12.1,6.7,0,12.1-5.4,12.1-12.1ZM84.9,84.3c0,4.2-3.4,7.7-7.7,7.7s-7.7-3.4-7.7-7.7c0-4.2,3.4-7.7,7.7-7.7,4.2,0,7.7,3.4,7.7,7.7Z"/>
    <path class="st1" d="M297.2,106.7c12.4,0,22.5-10.1,22.5-22.5,0-12.4-10.1-22.5-22.5-22.5-12.4,0-22.5,10.1-22.5,22.5,0,12.4,10.1,22.5,22.5,22.5ZM279.2,84.3c0-9.9,8.1-18,18-18,9.9,0,18,8.1,18,18,0,9.9-8.1,18-18,18-9.9,0-18-8.1-18-18Z"/>
    <path class="st1" d="M285.1,84.3c0,6.7,5.4,12.1,12.1,12.1,6.7,0,12.1-5.4,12.1-12.1,0-6.7-5.4-12.1-12.1-12.1-6.7,0-12.1,5.4-12.1,12.1ZM289.6,84.3c0-4.2,3.4-7.7,7.7-7.7,4.2,0,7.7,3.4,7.7,7.7,0,4.2-3.4,7.7-7.7,7.7-4.2,0-7.7-3.4-7.7-7.7Z"/>
    <path class="st1" d="M173.2,104.5c.7-.7-6.7-20.2-6.7-20.2,0,0-51.6,12.9-71.3,37.1,0,0,23.1-11.8,47.6-11.8,8.7,0,17.5,1.5,25.6,5.5l4.8-10.5ZM168.6,103.8l-2.5,5.4c-7-2.7-14.8-4.1-23.4-4.1-8.6,0-16.9,1.4-24.2,3.2,6.2-3.6,13.3-7.1,21.4-10.4,10-4.1,19-6.8,23.8-8.2,2.2,5.8,4.2,11.7,4.9,14.1Z"/>
    <path class="st1" d="M140.6,102.8s8.7-4.9,20.7-6.4l1.5,6.4s-10-2.9-22.1,0Z"/>
    <path class="st1" d="M275.5,121.4c-19.7-24.2-71.3-37.1-71.3-37.1,0,0-7.5,19.6-6.7,20.2l4.8,10.5c8.1-4,16.9-5.5,25.6-5.5,24.5,0,47.6,11.8,47.6,11.8ZM252.2,108.3c-7.3-1.8-15.7-3.2-24.3-3.2-8.6,0-16.4,1.4-23.4,4.1l-2.5-5.4c.6-2.4,2.7-8.3,4.9-14.1,8.3,2.4,28.4,8.7,45.3,18.6Z"/>
    <path class="st1" d="M207.9,102.8l1.5-6.4c11.9,1.5,20.7,6.4,20.7,6.4-12.1-2.9-22.1,0-22.1,0Z"/>
    <path class="st1" d="M186.3,464.5c-2,0-3.6-1.6-3.6-3.6s1.6-3.6,3.6-3.6,3.6,1.6,3.6,3.6c0,2-1.6,3.6-3.6,3.6Z"/>
    <circle class="st1" cx="89.3" cy="456.9" r="2.7"/>
    <circle class="st1" cx="281.4" cy="456.9" r="2.7"/>
    <circle class="st1" cx="253.6" cy="518.2" r="2.7"/>
    <circle class="st1" cx="253.6" cy="63.4" r="2.7"/>
    <path class="st1" d="M226.9,62.9c-1.5,0-2.7-1.2-2.7-2.7s1.2-2.7,2.7-2.7,2.7,1.2,2.7,2.7c0,1.5-1.2,2.7-2.7,2.7Z"/>
    <circle class="st1" cx="149.4" cy="60.1" r="2.7"/>
    <circle class="st1" cx="123.4" cy="518.2" r="2.7"/>
    <path class="st1" d="M226.9,518.7c1.5,0,2.7,1.2,2.7,2.7,0,1.5-1.2,2.7-2.7,2.7-1.5,0-2.7-1.2-2.7-2.7s1.2-2.7,2.7-2.7Z"/>
    <path class="st1" d="M149.4,518.8c1.5,0,2.7,1.2,2.7,2.7,0,1.5-1.2,2.7-2.7,2.7s-2.7-1.2-2.7-2.7c0-1.5,1.2-2.7,2.7-2.7Z"/>
    <circle class="st1" cx="123.4" cy="63.4" r="2.7"/>
    <path class="st1" d="M44.6,497.9c0,18,14.6,32.6,32.6,32.6,18,0,32.6-14.6,32.6-32.6,0-3.9-.7-7.7-2-11.2,19.1,13.3,41.7,22,66.2,24.3l1-2.4h.2c0,0,10.7-27.1,10.7-27.1l10.7,27.2h.2c0,0,1.1,2.5,1.1,2.5,25.2-2,48.6-10.8,68.2-24.6-1.3,3.5-2,7.4-2,11.4,0,18,14.6,32.6,32.6,32.6,18,0,32.6-14.6,32.6-32.6,0-13.1-7.7-24.3-18.8-29.5,3.1-10.3,15-53.7,15.3-98.9h-.2c-.8-30.5-14.8-59.4-32.7-78.9,17.6-19.1,31.5-47.4,32.7-77.3h.2c-.2-46-12.6-90-15.4-99.4,11.2-5.2,19-16.5,19-29.6,0-18-14.6-32.6-32.6-32.6-18,0-32.6,14.6-32.6,32.6,0,4,.7,7.8,2,11.3-19.6-13.8-43-22.6-68.2-24.6l-1.1,2.6h-.2c0,0-10.7,27.1-10.7,27.1l-10.7-27.2h-.2c0,0-1-2.4-1-2.4-24.4,2.3-47.1,10.9-66.2,24.3,1.3-3.5,2-7.3,2-11.2,0-18-14.6-32.6-32.6-32.6-18,0-32.6,14.6-32.6,32.6,0,13.2,7.9,24.6,19.2,29.7-2.5,8.4-12.2,42.8-14.7,81.8,0,.1,0,.2,0,.3-.6,4.2-.9,8.5-1,12.9h0c0,30.6,14.1,61.4,31.8,81.6-17.8,20.2-31.8,51-31.8,81.6h0c0,3.7.3,7.4.7,11,0,.5,0,1.1.1,1.6,2.3,39.2,12,74.2,14.7,83.5-11.2,5.2-19.1,16.5-19.1,29.7ZM58.1,423.9c6.2,15.7,15.2,30,26.3,42.3-2.3-.5-4.7-.8-7.2-.8s-6.4.5-9.3,1.4c-1.8-6.1-6.2-22.1-9.8-42.8ZM320.6,381.8c-4.9,43.2-41.6,77-86.2,77-15.8,0-30.6-4.3-43.4-11.7,1.6-1.1,3.2-2.3,4.7-3.5,11.2,6.1,24,9.5,37.7,9.5,12.4,0,24.1-2.8,34.6-7.8,4.9-1.7,9.3-4.4,13-7.8,19.9-14.6,32.8-38.2,32.8-64.7,0-7-1.3-19-4-26.1l-.6,1.7c-3.5-10.6-13.5-18.2-25.2-18.2s-.7,0-1.1,0h0c-10.6.4-19.1,9.1-19.1,19.8s7.8,18.6,17.8,19.6c.9.2,1.8.3,2.7.3,8.4,0,15.3-6.9,15.3-15.3s-6.9-15.3-15.3-15.3c-8.4,0-15.3,6.9-15.3,15.3,0,0,0,0,0,0-.5-1.5-.7-3-.7-4.6,0-8.4,6.8-15.2,15.2-15.2h0c.2,0,.3,0,.5,0,12.2,0,22.1,9.9,22.1,22.1,0,11.7-9.1,21.3-20.7,22h0c-16.8,1-31.3-11.7-32.4-28.5-.6-8.7,2.6-16.8,8.2-22.8h0c0,0,29.3-34.1,29.3-34.1h0c0,0,.1-.2.1-.2,16.9,17.8,29.7,45.5,30.6,75.6h-.3c0,1.4,0,2.9,0,4.3,0,2.9-.1,5.7-.3,8.6ZM320.8,213.3h.3c-1.1,30.1-14.1,57.7-31.1,75.2l-28.2-32.9h0c-5.6-5.9-8.7-14-8.2-22.7,1.1-16.8,15.6-29.5,32.4-28.4h0c11.5.7,20.7,10.3,20.7,22,0,12.2-9.9,22.1-22.1,22.1-.2,0-.3,0-.5,0h0c-8.4,0-15.2-6.9-15.2-15.3s.3-3.2.7-4.6c0,0,0,0,0,0,0,8.4,6.9,15.3,15.3,15.3,8.4,0,15.3-6.9,15.3-15.3,0-8.4-6.9-15.3-15.3-15.3-.9,0-1.8,0-2.7.3-10,1-17.8,9.4-17.8,19.6,0,10.7,8.5,19.3,19.1,19.7h0c.4.1.7.1,1.1.1,12.2,0,22.4-8.2,25.6-19.4,2.5-7.2,3.7-18.5,3.7-25.2,0-44.3-36-80.4-80.4-80.4-13.6,0-26.5,3.5-37.7,9.5-1.5-1.2-3.1-2.4-4.7-3.5,12.8-7.4,27.6-11.7,43.4-11.7,44.1,0,80.6,33.1,86,75.8.3,3.6.4,7.2.4,10.8,0,1.4,0,2.9,0,4.3ZM186.9,131.4c-3.6-2.2-7.4-4.2-11.3-5.9l10.3-18.2,10.7,18.8c-3.4,1.5-6.7,3.3-9.8,5.2ZM63.2,208.4c0-20.7,8.3-39.4,21.7-53.1-2.7,5.1-4.3,10.9-4.3,17.1,0,11,5.2,21.2,13.1,28-1.5-.2-3-.3-4.6-.4h0c-.4,0-.7,0-1.1,0-11,0-20.5,6.7-24.5,16.3-.3-2.6-.4-5.2-.4-7.8ZM88.8,383.3h0c1.5,0,3.1-.2,4.6-.4-7.9,6.8-13.1,17-13.1,28,0,4.3.7,8.4,2.1,12.2-11.8-13.4-19.1-31-19.1-50.2,0-1.7,0-3.5.2-5.2,4.2,9.2,13.5,15.6,24.2,15.6.4,0,.7,0,1.1,0ZM136.9,402.5h0c0-14.9-11.5-27.1-25.7-27.1-.4,0-.7,0-1.1,0,7.4-5.9,12.3-14.8,13-25,.4-6.2-.9-12.2-3.4-17.4,1.3-3.2,2.7-6.1,4.1-8.6.8,7.5,7.2,13.2,14.8,13.2,8.2,0,14.9-6.7,14.9-14.9,0-8.2-6.7-14.9-14.9-14.9,4.6-2.6,7.8-2.6,7.9-2.6v-1.2c4.2,12.6,14,22.6,26.4,27.1-17.2,5.6-29.7,21.8-29.7,40.9,0,0,0,0,0,.1s0,0,0,.1h0c0,9.9,1.7,19.4,4.6,28.3-.3.2-.6.4-.9.6,1,3,1.5,6.3,1.5,9.6,0,17.6-14.3,31.9-31.9,31.9-4.1,0-8-.8-11.6-2.2-3.1-1.6-6.1-3.3-8.9-5.3-7-5.9-11.4-14.6-11.4-24.4,0-12.4,7.6-23.6,17.9-28.9h0c2.6-1.3,5.5-2,8.6-2,11.7,0,21.3,10.1,21.3,22.6h0c0,9-6.5,16.4-14.7,17.4,2.2-1.9,3.7-4.8,3.7-8,0-5.8-4.8-10.6-10.6-10.6-5.8,0-10.6,4.8-10.6,10.6,0,2.7,1,5.1,2.6,6.9h0c.1.2.3.3.4.4.5.5,1.1,1,1.7,1.4,3.1,2.3,7,3.7,11.2,3.7s.3,0,.5,0h0c11.2-.3,20.2-10,20.3-21.9ZM104.7,411.9c0-3.4,2.7-6.1,6.1-6.1,3.4,0,6.1,2.7,6.1,6.1s-2.7,6.1-6.1,6.1c-1.3,0-2.4-.4-3.4-1-.3-.3-.7-.5-1-.8-1.1-1.1-1.7-2.6-1.7-4.3ZM213.8,372.2h0s0,0,0,.1c2,33.4-20.4,53.9-27,59.2-6.8-5.2-30-25.8-28-59.2,0,0,0,0,0-.1h0c0-14.9,12.3-27,27.5-27,7.6,0,14.5,3,19.4,7.9,4.9,4.9,8,11.6,8,19h.1s0,0,0,.1ZM182.8,434.8c-1.5,1.1-3.1,2.1-4.7,3.1-18.5-15.9-30.3-39.4-30.4-65.6,0-21.2,17.4-38.5,38.6-38.5h0c.4,0,.7,0,1.1,0h0c21.2,0,38.5,17.2,38.6,38.4,0,26.5-12,50.2-30.8,66-1.8-1.1-3.6-2.2-5.4-3.4,0,0,0,0,0,0,.2-.1.3-.3.5-.4,8-6.6,29.9-28.1,27.9-62.2h0c0-8.7-3.6-16.5-9.4-22.2-5.8-5.8-13.8-9.3-22.7-9.3-17.6,0-32,14.1-32,31.4h.1s0,0,0,.1h0c-.3,5.3,0,10.3.7,15.1v.4c.2,1.4.6,2.8.9,4.2,1,4.5,2.4,8.6,4.1,12.4,0,.1.1.3.2.4.2.4.4.8.5,1.2,5.1,11.3,12.7,21.2,22,29ZM266.4,441.1c-3.2,1.1-6.7,1.7-10.2,1.7-17.6,0-31.9-14.3-31.9-31.9,0-3.3.5-6.6,1.5-9.6,0,0,0,0,0,0,3.1-9,4.8-18.7,4.8-28.8h0c0,0,0-.1,0-.2h0s0,0,0,0c0-19.1-12.4-35.3-29.6-40.9,7.9-2.8,14.6-7.9,19.6-14.4-.8,1.8-1.2,3.8-1.2,5.9,0,8.2,6.7,14.9,14.9,14.9,8.2,0,14.9-6.7,14.9-14.9,0-8.2-6.7-14.9-14.9-14.9-4.2,0-8,1.7-10.7,4.5,3.1-5.2,5-11.2,5.7-17.5,14.1,2.3,26.8,23,29.8,28.4-7,6.9-11.1,16.6-10.4,27.2.7,10.1,5.6,19,12.9,24.9-14.1,0-25.6,12.2-25.6,27.1h0c0,11.8,9,21.4,20.1,21.9.9.3,1.9.4,2.9.4,5.8,0,10.6-4.8,10.6-10.6,0-5.8-4.8-10.6-10.6-10.6-5.8,0-10.6,4.8-10.6,10.6s.2,2.4.6,3.5c-5.1-3-8.5-8.7-8.6-15.3h0c0-12.5,9.5-22.6,21.3-22.6s6,.7,8.6,1.9h0c10.3,5.4,17.9,16.6,17.9,29,0,9.1-3.9,17.4-10,23.2-3.7,2.7-7.5,5-11.6,7ZM309.3,372.7c0,19-7.1,36.4-18.7,49.8,1.2-3.7,1.9-7.6,1.9-11.6,0-10.9-5.1-21-12.9-27.8,1,.1,2.1.2,3.2.2h0c.4,0,.7,0,1.1,0,11.5,0,21.3-7.4,25-17.6.2,2.3.3,4.7.3,7.1ZM252.8,414.3c0-3.4,2.7-6.1,6.1-6.1,3.4,0,6.1,2.7,6.1,6.1,0,3.4-2.7,6.1-6.1,6.1-3.4,0-6.1-2.7-6.1-6.1ZM259.6,259.8c-3.1,5.4-16,26.5-30.2,28.5-.3-5.9-1.8-11.5-4.2-16.6,2.6,2.2,6,3.5,9.6,3.5,8.2,0,14.9-6.7,14.9-14.9,0-8.2-6.7-14.9-14.9-14.9-8.2,0-14.9,6.7-14.9,14.9,0,1.3.2,2.5.5,3.7-5-6.4-11.7-11.3-19.4-14.1,17.2-5.7,29.6-21.8,29.6-40.9h0c0,0,0-.1,0-.2h0c0-9.7-1.6-19-4.4-27.7-.8-2.8-1.2-5.7-1.2-8.7,0-17.6,14.3-31.9,31.9-31.9,17.6,0,31.9,14.3,31.9,31.9,0,12.4-7.6,23.6-17.9,28.9h0c-2.6,1.3-5.5,2-8.6,2-11.7,0-21.3-10.1-21.3-22.6h0c0-6.6,3.5-12.3,8.6-15.3-.4,1.1-.6,2.3-.6,3.5,0,5.8,4.8,10.6,10.6,10.6s10.6-4.8,10.6-10.6c0-5.8-4.8-10.6-10.6-10.6-1,0-2,.2-2.9.4-11.1.5-20.1,10.1-20.1,21.9h0c0,14.9,11.5,27,25.6,27.1-7.3,5.9-12.3,14.8-12.9,24.9-.7,10.5,3.4,20.3,10.4,27.2ZM283.4,199.9h0c-1.1,0-2.1.1-3.2.2,7.8-6.8,12.9-16.9,12.9-27.8,0-5-1-9.7-2.8-14.1,11.8,13.4,19,31,19,50.2,0,2.6-.1,5.1-.4,7.6-4.1-9.5-13.5-16.2-24.4-16.2-.4,0-.7,0-1.1,0ZM199.4,140.7c10.2-5.2,21.8-8.1,34-8.1,7.8,0,15.4,1.2,22.5,3.4-18.2.4-33.2,14.2-35.3,32-5.3-10.4-12.5-19.7-21.2-27.3ZM128.6,260.4c0-5.8,4.7-10.5,10.5-10.5s10.5,4.7,10.5,10.5c0,5.8-4.7,10.5-10.5,10.5-5.8,0-10.5-4.7-10.5-10.5ZM148.6,271.9c-.9,1.9-1.7,3.9-2.3,5.9-1.2-.1-3.7-.7-7-2.5,3.5,0,6.8-1.3,9.3-3.4ZM107.7,272.2c.4,0,.8-.1,1.3-.1,2.2,0,4.2.9,5.6,2.6,1.4,1.7,2,3.8,1.6,6-.5,3-2.9,5.5-6,6-2.6.4-5.2-.5-6.8-2.5-1.4-1.7-2-3.8-1.6-6,.5-3,2.9-5.5,6-6ZM105.2,313.3c1.2.4,2.5.6,3.8.6s3.5-.4,5-1.1c-.4.6-.8,1.1-1.1,1.7-1.1,1.7-2.1,3.2-2.8,4.5l-4.8-5.6ZM257.1,302.5c.5-3,2.9-5.5,6-6,.4,0,.8-.1,1.3-.1,2.2,0,4.2.9,5.6,2.6,1.4,1.7,2,3.8,1.6,6-.5,3-2.9,5.5-6,6-2.6.4-5.2-.5-6.8-2.5-1.4-1.7-2-3.8-1.6-6ZM265.6,315.5l-2.9,3.4c-.7-1.2-1.6-2.6-2.6-4.2,1.4.5,2.8.8,4.3.8.4,0,.8,0,1.2,0ZM148.8,290.6c0-20.9,16.7-37.9,37.5-38.5h0c21.2,0,38.5,17.3,38.6,38.5,0,21.2-17.4,38.5-38.6,38.5h0c-20.7-.6-37.4-17.6-37.5-38.5ZM101.7,302.1c0-4,3.3-7.3,7.3-7.3,4,0,7.3,3.3,7.3,7.3,0,4-3.3,7.3-7.3,7.3-4,0-7.3-3.3-7.3-7.3ZM120.7,278.3c4.6,5.3,10.3,10.3,16.5,12.9-6.3,2.6-12,7.7-16.6,13,.1-.7.2-1.4.2-2.1,0-5.4-3.7-10-8.6-11.3,4.3-1.2,7.7-4.9,8.5-9.4.2-1,.2-2.1,0-3.1ZM259.5,162.8c3.4,0,6.1,2.7,6.1,6.1,0,3.4-2.7,6.1-6.1,6.1-3.4,0-6.1-2.7-6.1-6.1s2.7-6.1,6.1-6.1ZM234.8,249.9c5.8,0,10.5,4.7,10.5,10.5,0,5.8-4.7,10.5-10.5,10.5-5.8,0-10.5-4.7-10.5-10.5,0-5.8,4.7-10.5,10.5-10.5ZM270.5,284.1c-1.4,1.6-3.4,2.6-5.6,2.6h0c-.4,0-.8,0-1.3-.1-3-.5-5.5-2.9-6-6-.4-2.2.2-4.3,1.6-6,1.4-1.6,3.4-2.6,5.6-2.6s.8,0,1.3.1c3,.5,5.5,2.9,6,6,.4,2.2-.2,4.3-1.6,6ZM262.6,263.5l3.7,4.3c-2.6-.3-5.2.3-7.3,1.5,1.5-2.3,2.8-4.3,3.7-5.8ZM276.6,279.8l9.8,11.4-10.3,12c-.1-2.6-1.1-5.1-2.8-7.1-2.7-3.1-6.8-4.7-11-4-4.9.8-8.8,4.8-9.6,9.6-.2,1-.2,2,0,3-4.7-5.5-10.6-10.9-17.1-13.6,6.9-2.8,13.1-8.7,17.9-14.6-.4,1.5-.5,3.2-.2,4.8.8,4.9,4.8,8.8,9.6,9.6.7.1,1.3.2,2,.2h0c3.5,0,6.7-1.5,9-4.2,1.7-2,2.7-4.6,2.8-7.2ZM234.3,312.4c5.8,0,10.5,4.7,10.5,10.5,0,5.8-4.7,10.5-10.5,10.5s-10.5-4.7-10.5-10.5c0-5.8,4.7-10.5,10.5-10.5ZM250.2,446.7c-5.4,1.2-11,1.9-16.8,1.9-12.2,0-23.8-2.9-34-8.1,8.4-7.3,15.4-16.2,20.6-26.1,1.6,16.4,14.2,29.6,30.2,32.3ZM174,440.2c-10.4,5.4-22.3,8.5-34.8,8.5-5.8,0-11.5-.7-16.9-1.9,16.8-2.6,29.8-16.7,30.7-34,5.2,10.4,12.4,19.7,21.1,27.4ZM138.5,312.4c5.8,0,10.5,4.7,10.5,10.5,0,5.8-4.7,10.5-10.5,10.5-5.8,0-10.5-4.7-10.5-10.5,0-5.8,4.7-10.5,10.5-10.5ZM112.6,323.4c.5-1,1.9-3.4,3.9-6.4,5.9-8.8,16.6-22,28-22.3.2,2.1.5,4.2,1,6.2-3.9.3-17.9,3.3-28.8,27.5-1.2-1.8-2.6-3.4-4.2-4.9ZM86.3,291.2l11-12.8c-.3,3.1.7,6.3,2.7,8.7,1.6,1.8,3.6,3.1,5.9,3.7-5,1.4-8.7,5.9-8.7,11.4,0,.7,0,1.4.2,2.1l-11.1-13ZM106.2,268l3.8-4.5c.8,1.3,1.8,3,3.1,4.9-1.9-.7-4-1-6.2-.6-.3,0-.5.1-.8.2ZM113.1,259.8c1.6-1.5,3-3.2,4.2-5,10.2,22.5,23,26.6,27.8,27.4-.4,2-.7,4.1-.8,6.2-14.6-1-28.1-23-31.3-28.6ZM123.5,232.7c-.7-10.2-5.6-19-13-25,.4,0,.7,0,1.1,0,14.2,0,25.7-12.1,25.7-27.1h0c0-11.9-9.1-21.6-20.3-22h0c-.2,0-.3,0-.5,0-4.2,0-8.1,1.4-11.2,3.7-.6.4-1.2.9-1.7,1.4-.1.1-.3.3-.4.4h0c-1.6,1.9-2.6,4.3-2.6,7,0,5.8,4.8,10.6,10.6,10.6,5.8,0,10.6-4.8,10.6-10.6,0-3.2-1.4-6.1-3.7-8,8.2,1,14.6,8.4,14.7,17.4h0c0,12.5-9.5,22.6-21.3,22.6-3.1,0-5.9-.7-8.6-1.9h0c-10.3-5.4-17.9-16.6-17.9-29,0-17.6,14.3-31.9,31.9-31.9,17.6,0,31.9,14.3,31.9,31.9,0,2.5-.3,5-.9,7.4-3.1,9.1-4.9,18.9-4.9,29.1h0s0,0,0,.1,0,0,0,.1c0,19.1,12.4,35.3,29.7,40.9-7.7,2.8-14.4,7.7-19.3,14,.3-1.1.4-2.3.4-3.5,0-8.2-6.7-14.9-14.9-14.9-7.7,0-14,5.8-14.8,13.2-1.4-2.5-2.8-5.4-4.1-8.6,2.5-5.2,3.8-11.2,3.4-17.4ZM117.5,171.3c0,3.4-2.7,6.1-6.1,6.1s-6.1-2.7-6.1-6.1c0-1.7.7-3.2,1.7-4.3.3-.3.7-.6,1-.8,1-.6,2.1-1,3.4-1,3.4,0,6.1,2.7,6.1,6.1ZM116.4,136c7.2-2.3,14.8-3.5,22.8-3.5,12.6,0,24.4,3.1,34.8,8.5-8.5,7.5-15.6,16.6-20.8,26.8-2.2-17.9-17.6-31.9-36.1-31.9-.2,0-.5,0-.7,0ZM178.1,143.3c1.6,1,3.2,2,4.7,3.1-9.4,7.8-16.9,17.7-22,29-.2.4-.4.8-.5,1.2,0,.1-.1.3-.2.4-1.7,3.8-3.1,8-4.1,12.4-.3,1.4-.6,2.8-.9,4.2v.4c-.7,4.7-1,9.7-.7,15.1h0c0,17.3,14.3,31.4,32,31.4,17.6,0,32-14.1,32-31.4h0c2-34.1-19.9-55.5-27.9-62.2-.2-.1-.3-.3-.5-.4,0,0,0,0,0,0,1.7-1.2,3.5-2.4,5.4-3.4,12.1,10.3,21.4,23.8,26.5,39.2.2.7.4,1.5.7,2.2,2.3,7.8,3.6,16.1,3.6,24.6-.1,21.2-17.4,38.4-38.6,38.4h0c-.4,0-.7,0-1.1,0h0c-21.2,0-38.5-17.2-38.6-38.5,0-8.5,1.3-16.6,3.6-24.4,0,0,0,0,0,0,.4-1.2.8-2.4,1.1-3.6,5.1-14.8,14.1-27.7,25.7-37.7ZM213.8,209h0c0,14.9-12.3,27-27.5,27-15.2,0-27.5-12.1-27.5-27h0s0,0,0-.1c-2-33.4,21.3-53.9,28-59.2,6.6,5.3,29,25.8,27,59.2,0,0,0,0,0,.1ZM181.7,140.4c1.7-1.3,3.4-2.5,5.2-3.7,1.6,1.1,3.2,2.2,4.7,3.3-1.8,1.1-3.6,2.3-5.3,3.6-1.5-1.1-3.1-2.2-4.7-3.2ZM282.6,218.1c.5,0,.9,0,1.4,0h0c.3-.1.5-.2.8-.2,6,0,10.8,4.9,10.8,10.8,0,6-4.9,10.8-10.8,10.8-6,0-10.8-4.9-10.8-10.8,0-5.2,3.7-9.6,8.6-10.6ZM282,365.1c-4.9-1-8.6-5.4-8.6-10.6,0-6,4.9-10.8,10.8-10.8,6,0,10.8,4.9,10.8,10.8,0,6-4.9,10.8-10.8,10.8-.3,0-.5,0-.8,0h0c-.5-.1-1-.1-1.4-.2ZM186.9,444.5c-1.8-1.2-3.5-2.4-5.2-3.7,1.6-1,3.1-2.1,4.7-3.2,1.7,1.3,3.5,2.5,5.3,3.6-1.5,1.2-3.1,2.3-4.7,3.3ZM182.7,447c-12.8,7.4-27.6,11.7-43.4,11.7-44,0-80.4-32.9-86-75.4-.3-4.6-.4-9.2-.4-13.9h0c0-.2,0-.4,0-.5h-.3c.8-29.5,12-56,29.4-74.5l28.4,33.1h0c5.6,5.9,8.7,14,8.2,22.7-1.1,16.8-15.6,29.5-32.4,28.4h0c-11.5-.7-20.7-10.3-20.7-22,0-12.2,9.9-22.1,22.1-22.1.2,0,.3,0,.5,0h0c8.4,0,15.2,6.9,15.2,15.3,0,.7,0,1.4-.2,2.1-1-7.4-7.4-13.2-15.1-13.2-8.4,0-15.3,6.9-15.3,15.3,0,0,0,0,0,0h0c0,8.5,6.9,15.4,15.4,15.4h0c10.9,0,19.7-8.8,19.7-19.7,0-10.7-8.5-19.3-19.1-19.7h0c-.4-.1-.7-.1-1.1-.1-11.2,0-20.8,7-24.7,16.8v-.3c-2.8,7.1-4.1,19.1-4.1,26.1,0,27.2,13.6,51.3,34.4,65.9,3,2.5,6.4,4.5,10,6,10.8,5.4,23,8.5,35.9,8.5,13.9,0,27-3.6,38.4-10,1.7,1.3,3.4,2.6,5.1,3.8ZM77.3,354.1c0-6,4.9-10.8,10.8-10.8,6,0,10.8,4.9,10.8,10.8,0,6-4.9,10.8-10.8,10.8-6,0-10.8-4.9-10.8-10.8ZM82.7,287.5c-17.6-18.3-29.1-44.7-30.1-74.2h.3c0-5.7.2-11.3.6-16.8,6.2-41.8,42.3-74,85.8-74,15.8,0,30.6,4.3,43.4,11.7-1.8,1.2-3.5,2.5-5.1,3.8-11.4-6.3-24.5-10-38.4-10-44.3,0-80.4,36-80.4,80.4,0,7,1.3,19,4,26.1h0c3.4,10.7,13.5,18.6,25.3,18.6.4,0,.7,0,1.1,0h0c10.6-.4,19.1-9.1,19.1-19.8,0-10.9-8.8-19.7-19.7-19.7h0c-8.5,0-15.4,7-15.4,15.5h0s0,0,0,0c0,8.4,6.9,15.3,15.3,15.3,7.7,0,14.1-5.7,15.1-13.2,0,.7.2,1.4.2,2.1,0,8.4-6.8,15.2-15.2,15.2h0c-.2,0-.3,0-.5,0-12.2,0-22.1-9.9-22.1-22.1,0-11.7,9.1-21.3,20.7-22h0c16.8-1,31.3,11.7,32.4,28.5.6,8.7-2.6,16.8-8.2,22.8h0c0,0-27.3,31.8-27.3,31.8l-.4-.5c-.2.2-.3.4-.5.6ZM99.4,229.1c0,6-4.9,10.8-10.8,10.8s-10.8-4.9-10.8-10.8c0-6,4.9-10.8,10.8-10.8,6,0,10.8,4.9,10.8,10.8ZM68,115.6c2.9.9,6,1.3,9.2,1.3,2.5,0,4.9-.3,7.2-.8-11.1,12.2-20,26.3-26.2,41.8,3.7-20.8,8.1-36.8,9.8-42.3ZM98.7,102.5c-2.1,1.7-4.1,3.6-6.1,5.4-4.4,2.9-9.7,4.5-15.3,4.5-15.5,0-28.1-12.6-28.1-28.1,0-15.5,12.6-28.1,28.1-28.1,15.5,0,28.1,12.6,28.1,28.1,0,6.9-2.5,13.3-6.7,18.2ZM182.5,104.3l-11.1,19.5c-10-3.8-20.8-5.9-32.1-5.9-32.9,0-61.8,17.5-77.9,43.8,7.2-19.2,18.8-36.2,33.4-50.1,2.8-1.8,5.2-3.9,7.3-6.4,19.3-15.8,43.1-26.3,69.2-29.4l11.2,28.4ZM272.2,105.8c1.9,2.1,4,4,6.3,5.6,14.8,13.9,26.4,31.1,33.7,50.4-16-26.2-44.9-43.7-77.8-43.7-12.7,0-24.8,2.6-35.8,7.3l2-1.1-11.3-19.9,11.3-28.6c27,2.8,51.7,13.6,71.6,30.1ZM296.7,112.4c-5.9,0-11.4-1.8-15.9-4.9-1.7-1.5-3.4-3-5.1-4.5-4.4-5-7.1-11.5-7.1-18.7,0-15.5,12.6-28.1,28.1-28.1s28.1,12.6,28.1,28.1c0,15.5-12.6,28.1-28.1,28.1ZM306.2,115.5c1.7,5.7,6.4,22.6,10.2,44.6-6.2-16.4-15.5-31.3-27.1-44.1,2.4.6,4.9.9,7.4.9,3.3,0,6.5-.5,9.5-1.4ZM306.3,466.8c-3-.9-6.3-1.4-9.6-1.4s-5,.3-7.4.9c11.7-12.9,21-27.9,27.2-44.5-3.7,21.9-8.4,38.8-10.2,45.1ZM275.7,479.2c1.7-1.5,3.4-3,5.1-4.5,4.5-3.1,10-4.9,15.9-4.9,15.5,0,28.1,12.6,28.1,28.1,0,15.5-12.6,28.1-28.1,28.1-15.5,0-28.1-12.6-28.1-28.1,0-7.2,2.7-13.7,7.1-18.7ZM189.3,477.9l11.3-19.9-3.9-2.2-10.8,19-10.8-19c4.1-1.7,8-3.8,11.7-6.1,13.9,8.5,30.1,13.4,47.6,13.4,33.6,0,63-18.3,78.8-45.4-7.2,20.4-19.3,38.6-34.7,53.1-2.3,1.6-4.5,3.5-6.3,5.6-19.9,16.5-44.6,27.3-71.6,30.1l-11.3-28.6ZM102.1,477c-2.1-2.5-4.6-4.7-7.3-6.4-15.3-14.5-27.2-32.5-34.4-52.8,15.8,27.2,45.2,45.5,78.9,45.5,12.5,0,24.5-2.5,35.4-7.1l-3.4,2,11.3,19.9-11.2,28.4c-26.1-3-49.9-13.5-69.2-29.4ZM49.1,497.9c0-15.5,12.6-28.1,28.1-28.1,5.6,0,10.9,1.7,15.3,4.5,2,1.9,4,3.7,6.1,5.4,4.2,4.9,6.7,11.2,6.7,18.2,0,15.5-12.6,28.1-28.1,28.1-15.5,0-28.1-12.6-28.1-28.1Z"/>
    <path class="st1" d="M54.7,497.9c0,12.4,10.1,22.5,22.5,22.5,12.4,0,22.5-10.1,22.5-22.5,0-12.4-10.1-22.5-22.5-22.5-12.4,0-22.5,10.1-22.5,22.5ZM59.2,497.9c0-9.9,8.1-18,18-18,9.9,0,18,8.1,18,18,0,9.9-8.1,18-18,18-9.9,0-18-8.1-18-18Z"/>
    <path class="st1" d="M65.1,497.9c0,6.7,5.4,12.1,12.1,12.1,6.7,0,12.1-5.4,12.1-12.1,0-6.7-5.4-12.1-12.1-12.1-6.7,0-12.1,5.4-12.1,12.1ZM69.6,497.9c0-4.2,3.4-7.7,7.7-7.7s7.7,3.4,7.7,7.7c0,4.2-3.4,7.7-7.7,7.7-4.2,0-7.7-3.4-7.7-7.7Z"/>
    <path class="st1" d="M56.8,302.2c6.7,0,12.1-5.4,12.1-12.1,0-6.7-5.4-12.1-12.1-12.1-6.7,0-12.1,5.4-12.1,12.1,0,6.7,5.4,12.1,12.1,12.1ZM49.1,290.1c0-4.2,3.4-7.7,7.7-7.7,4.2,0,7.7,3.4,7.7,7.7,0,4.2-3.4,7.7-7.7,7.7-4.2,0-7.7-3.4-7.7-7.7Z"/>
    <path class="st1" d="M111.3,518.2c0,6.7,5.4,12.1,12.1,12.1,6.7,0,12.1-5.4,12.1-12.1,0-6.7-5.4-12.1-12.1-12.1-6.7,0-12.1,5.4-12.1,12.1ZM115.8,518.2c0-4.2,3.4-7.7,7.7-7.7s7.7,3.4,7.7,7.7c0,4.2-3.4,7.7-7.7,7.7-4.2,0-7.7-3.4-7.7-7.7Z"/>
    <path class="st1" d="M241.5,518.2c0,6.7,5.4,12.1,12.1,12.1,6.7,0,12.1-5.4,12.1-12.1,0-6.7-5.4-12.1-12.1-12.1-6.7,0-12.1,5.4-12.1,12.1ZM246,518.2c0-4.2,3.4-7.7,7.7-7.7,4.2,0,7.7,3.4,7.7,7.7,0,4.2-3.4,7.7-7.7,7.7-4.2,0-7.7-3.4-7.7-7.7Z"/>
    <path class="st1" d="M217.6,521.4c0,5.1,4.1,9.2,9.2,9.2,5.1,0,9.2-4.1,9.2-9.2,0-5.1-4.1-9.2-9.2-9.2s-9.2,4.1-9.2,9.2ZM221,521.4c0-3.2,2.6-5.9,5.9-5.9,3.2,0,5.9,2.6,5.9,5.9,0,3.2-2.6,5.9-5.9,5.9-3.2,0-5.9-2.6-5.9-5.9Z"/>
    <path class="st1" d="M140.2,521.4c0,5.1,4.1,9.2,9.2,9.2s9.2-4.1,9.2-9.2c0-5.1-4.1-9.2-9.2-9.2-5.1,0-9.2,4.1-9.2,9.2ZM143.6,521.4c0-3.2,2.6-5.9,5.9-5.9s5.9,2.6,5.9,5.9-2.6,5.9-5.9,5.9c-3.2,0-5.9-2.6-5.9-5.9Z"/>
    <path class="st1" d="M135.5,63.4c0-6.7-5.4-12.1-12.1-12.1-6.7,0-12.1,5.4-12.1,12.1,0,6.7,5.4,12.1,12.1,12.1,6.7,0,12.1-5.4,12.1-12.1ZM131.1,63.4c0,4.2-3.4,7.7-7.7,7.7-4.2,0-7.7-3.4-7.7-7.7s3.4-7.7,7.7-7.7c4.2,0,7.7,3.4,7.7,7.7Z"/>
    <path class="st1" d="M265.7,63.4c0-6.7-5.4-12.1-12.1-12.1-6.7,0-12.1,5.4-12.1,12.1,0,6.7,5.4,12.1,12.1,12.1s12.1-5.4,12.1-12.1ZM261.3,63.4c0,4.2-3.4,7.7-7.7,7.7s-7.7-3.4-7.7-7.7c0-4.2,3.4-7.7,7.7-7.7,4.2,0,7.7,3.4,7.7,7.7Z"/>
    <path class="st1" d="M236.1,60.1c0-5.1-4.1-9.2-9.2-9.2-5.1,0-9.2,4.1-9.2,9.2,0,5.1,4.1,9.2,9.2,9.2s9.2-4.1,9.2-9.2ZM232.8,60.1c0,3.2-2.6,5.9-5.9,5.9s-5.9-2.6-5.9-5.9c0-3.2,2.6-5.9,5.9-5.9,3.2,0,5.9,2.6,5.9,5.9Z"/>
    <path class="st1" d="M158.7,60.1c0-5.1-4.1-9.2-9.2-9.2-5.1,0-9.2,4.1-9.2,9.2,0,5.1,4.1,9.2,9.2,9.2s9.2-4.1,9.2-9.2ZM155.3,60.1c0,3.2-2.6,5.9-5.9,5.9s-5.9-2.6-5.9-5.9c0-3.2,2.6-5.9,5.9-5.9,3.2,0,5.9,2.6,5.9,5.9Z"/>
    <path class="st1" d="M327.2,290.1c0-6.7-5.4-12.1-12.1-12.1-6.7,0-12.1,5.4-12.1,12.1s5.4,12.1,12.1,12.1c6.7,0,12.1-5.4,12.1-12.1ZM322.7,290.1c0,4.2-3.4,7.7-7.7,7.7-4.2,0-7.7-3.4-7.7-7.7,0-4.2,3.4-7.7,7.7-7.7s7.7,3.4,7.7,7.7Z"/>
    <path class="st1" d="M274.8,497.9c0,12.4,10.1,22.5,22.5,22.5,12.4,0,22.5-10.1,22.5-22.5,0-12.4-10.1-22.5-22.5-22.5-12.4,0-22.5,10.1-22.5,22.5ZM279.2,497.9c0-9.9,8.1-18,18-18,9.9,0,18,8.1,18,18,0,9.9-8.1,18-18,18-9.9,0-18-8.1-18-18Z"/>
    <path class="st1" d="M285.1,497.9c0,6.7,5.4,12.1,12.1,12.1,6.7,0,12.1-5.4,12.1-12.1s-5.4-12.1-12.1-12.1c-6.7,0-12.1,5.4-12.1,12.1ZM289.6,497.9c0-4.2,3.4-7.7,7.7-7.7,4.2,0,7.7,3.4,7.7,7.7,0,4.2-3.4,7.7-7.7,7.7-4.2,0-7.7-3.4-7.7-7.7Z"/>
    <path class="st1" d="M166.5,497.9s7.5-19.6,6.7-20.2l-4.8-10.5c-8.1,4-16.9,5.5-25.6,5.5-24.5,0-47.6-11.8-47.6-11.8,19.7,24.2,71.3,37.1,71.3,37.1ZM118.5,474c7.3,1.8,15.7,3.2,24.3,3.2,8.6,0,16.4-1.4,23.4-4.1l2.5,5.4c-.6,2.4-2.7,8.3-4.9,14.1-8.3-2.4-28.4-8.7-45.3-18.6Z"/>
    <path class="st1" d="M162.7,479.4l-1.5,6.4c-11.9-1.5-20.7-6.4-20.7-6.4,12.1,2.9,22.1,0,22.1,0Z"/>
    <path class="st1" d="M202.3,467.2l-4.8,10.5c-.7.7,6.7,20.2,6.7,20.2,0,0,51.6-12.9,71.3-37.1,0,0-23.1,11.8-47.6,11.8-8.7,0-17.5-1.5-25.6-5.5ZM202.1,478.4l2.5-5.4c7,2.7,14.8,4.1,23.4,4.1,8.6,0,17-1.4,24.3-3.2-16.9,9.9-37,16.2-45.3,18.6-2.2-5.8-4.2-11.7-4.9-14.1Z"/>
    <path class="st1" d="M230.1,479.4s-8.7,4.9-20.7,6.4l-1.5-6.4s10,2.9,22.1,0Z"/>
    <path class="st1" d="M162.7,142.3s-7.1,5.2-7.7,11.1c0,0-3.8-9.7-10.7-13.4,0,0,9.5-1.8,18.4,2.3Z"/>
    <path class="st1" d="M229.6,140c-6.9,3.7-10.7,13.4-10.7,13.4-.6-6-7.7-11.1-7.7-11.1,8.9-4.1,18.4-2.3,18.4-2.3Z"/>
    <path class="st1" d="M155.1,428.6c.6,6,7.7,11.1,7.7,11.1-8.9,4.1-18.4,2.3-18.4,2.3,6.9-3.7,10.7-13.4,10.7-13.4Z"/>
    <path class="st1" d="M211.1,439.7s7.1-5.2,7.7-11.1c0,0,3.8,9.7,10.7,13.4,0,0-9.5,1.8-18.4-2.3Z"/>
    <polygon class="st1" points="48.5 253.9 58.3 272.4 48.5 272.4 48.5 253.9"/>
    <polygon class="st1" points="48.5 327.2 48.5 308.7 58.3 308.7 48.5 327.2"/>
    <polygon class="st1" points="325 253.9 325 272.4 315.2 272.4 325 253.9"/>
    <polygon class="st1" points="325 327.2 315.2 308.7 325 308.7 325 327.2"/>
    <polygon class="st1" points="186.2 80.6 186 79.5 185.8 80.6 181.6 63.4 167.9 57.1 185.9 57.1 185.9 57.1 204.1 57.1 190.4 63.4 186.2 80.6"/>
    <polygon class="st1" points="185.8 503.2 186 504.4 186.2 503.2 190.4 520.4 204.1 526.7 185.9 526.7 185.9 526.7 167.9 526.7 181.6 520.4 185.8 503.2"/>
  </g>
</svg>