<?xml version="1.0" encoding="UTF-8"?>
<svg id="Layer_2" data-name="Layer 2" xmlns="http://www.w3.org/2000/svg" viewBox="0 0 147.07 204.13">
  <defs>
    <style>
      .cls-1 {
        stroke: #1c1c26;
        stroke-linejoin: round;
        stroke-width: 2px;
      }

      .cls-1, .cls-2, .cls-3 {
        fill: none;
      }

      .cls-4 {
        fill: #b688ff;
      }

      .cls-5 {
        fill: #fff;
      }

      .cls-6 {
        fill: #8b93bc;
      }

      .cls-7 {
        fill: #5c3896;
      }

      .cls-3 {
        stroke: #221e3f;
        stroke-miterlimit: 10;
      }
    </style>
  </defs>
  <g id="OBJECTS">
    <g>
      <g>
        <rect class="cls-6" x="1" y="1" width="145.07" height="202.13" rx="6.58" ry="6.58"/>
        <rect class="cls-1" x="1" y="1" width="145.07" height="202.13" rx="6.58" ry="6.58"/>
        <rect class="cls-5" x="-23.63" y="33.53" width="194.13" height="137.07" rx="2.58" ry="2.58" transform="translate(175.5 28.63) rotate(90)"/>
        <rect class="cls-7" x="-18.63" y="38.53" width="184.13" height="127.07" rx=".8" ry=".8" transform="translate(175.5 28.63) rotate(90)"/>
      </g>
      <g>
        <polygon class="cls-2" points="115.09 18.14 101.21 18.14 87.32 18.14 73.44 18.14 73.44 18.14 59.55 18.14 45.67 18.14 31.79 18.14 17.9 18.14 17.9 32.16 17.9 46.17 17.9 60.18 17.9 74.19 17.9 88.2 17.9 102.21 17.9 116.22 17.9 130.23 17.9 144.24 17.9 158.26 17.9 172.27 17.9 186.28 31.79 186.28 45.67 186.28 59.55 186.28 73.44 186.28 73.44 186.28 87.32 186.28 101.21 186.28 115.09 186.28 128.97 186.28 128.97 172.27 128.97 158.26 128.97 144.24 128.97 130.23 128.97 116.22 128.97 102.21 128.97 88.2 128.97 74.19 128.97 60.18 128.97 46.17 128.97 32.16 128.97 18.14 115.09 18.14"/>
        <polygon class="cls-3" points="115.09 18.14 101.21 18.14 87.32 18.14 73.44 18.14 73.44 18.14 59.55 18.14 45.67 18.14 31.79 18.14 17.9 18.14 17.9 32.16 17.9 46.17 17.9 60.18 17.9 74.19 17.9 88.2 17.9 102.21 17.9 116.22 17.9 130.23 17.9 144.24 17.9 158.26 17.9 172.27 17.9 186.28 31.79 186.28 45.67 186.28 59.55 186.28 73.44 186.28 73.44 186.28 87.32 186.28 101.21 186.28 115.09 186.28 128.97 186.28 128.97 172.27 128.97 158.26 128.97 144.24 128.97 130.23 128.97 116.22 128.97 102.21 128.97 88.2 128.97 74.19 128.97 60.18 128.97 46.17 128.97 32.16 128.97 18.14 115.09 18.14"/>
        <g>
          <g>
            <path class="cls-3" d="M31.88,32.16c-7.67,0-13.88-6.27-13.88-14.01,7.67,0,13.88,6.27,13.88,14.01Z"/>
            <path class="cls-5" d="M28.31,28.55c-1.09-3.18-3.59-5.7-6.74-6.8,1.09,3.18,3.59,5.7,6.74,6.8Z"/>
          </g>
          <g>
            <path class="cls-3" d="M45.77,32.16c-7.67,0-13.88-6.27-13.88-14.01,7.67,0,13.88,6.27,13.88,14.01Z"/>
            <path class="cls-5" d="M42.19,28.55c-1.09-3.18-3.59-5.7-6.74-6.8,1.09,3.18,3.59,5.7,6.74,6.8Z"/>
          </g>
          <g>
            <path class="cls-3" d="M31.88,46.17c7.67,0,13.88-6.27,13.88-14.01-7.67,0-13.88,6.27-13.88,14.01Z"/>
            <path class="cls-4" d="M35.46,42.56c1.09-3.18,3.59-5.7,6.74-6.8-1.09,3.18-3.59,5.7-6.74,6.8Z"/>
          </g>
          <g>
            <path class="cls-3" d="M18,46.17c7.67,0,13.88-6.27,13.88-14.01-7.67,0-13.88,6.27-13.88,14.01Z"/>
            <path class="cls-4" d="M21.57,42.56c1.09-3.18,3.59-5.7,6.74-6.8-1.09,3.18-3.59,5.7-6.74,6.8Z"/>
          </g>
        </g>
        <g>
          <g>
            <path class="cls-3" d="M31.88,60.18c-7.67,0-13.88-6.27-13.88-14.01,7.67,0,13.88,6.27,13.88,14.01Z"/>
            <path class="cls-5" d="M28.31,56.57c-1.09-3.18-3.59-5.7-6.74-6.8,1.09,3.18,3.59,5.7,6.74,6.8Z"/>
          </g>
          <g>
            <path class="cls-3" d="M45.77,60.18c-7.67,0-13.88-6.27-13.88-14.01,7.67,0,13.88,6.27,13.88,14.01Z"/>
            <path class="cls-5" d="M42.19,56.57c-1.09-3.18-3.59-5.7-6.74-6.8,1.09,3.18,3.59,5.7,6.74,6.8Z"/>
          </g>
          <g>
            <path class="cls-3" d="M31.88,74.19c7.67,0,13.88-6.27,13.88-14.01-7.67,0-13.88,6.27-13.88,14.01Z"/>
            <path class="cls-4" d="M35.46,70.58c1.09-3.18,3.59-5.7,6.74-6.8-1.09,3.18-3.59,5.7-6.74,6.8Z"/>
          </g>
          <g>
            <path class="cls-3" d="M18,74.19c7.67,0,13.88-6.27,13.88-14.01-7.67,0-13.88,6.27-13.88,14.01Z"/>
            <path class="cls-4" d="M21.57,70.58c1.09-3.18,3.59-5.7,6.74-6.8-1.09,3.18-3.59,5.7-6.74,6.8Z"/>
          </g>
        </g>
        <g>
          <g>
            <path class="cls-3" d="M31.88,88.2c-7.67,0-13.88-6.27-13.88-14.01,7.67,0,13.88,6.27,13.88,14.01Z"/>
            <path class="cls-5" d="M28.31,84.59c-1.09-3.18-3.59-5.7-6.74-6.8,1.09,3.18,3.59,5.7,6.74,6.8Z"/>
          </g>
          <g>
            <path class="cls-3" d="M45.77,88.2c-7.67,0-13.88-6.27-13.88-14.01,7.67,0,13.88,6.27,13.88,14.01Z"/>
            <path class="cls-5" d="M42.19,84.59c-1.09-3.18-3.59-5.7-6.74-6.8,1.09,3.18,3.59,5.7,6.74,6.8Z"/>
          </g>
          <g>
            <path class="cls-3" d="M31.88,102.21c7.67,0,13.88-6.27,13.88-14.01-7.67,0-13.88,6.27-13.88,14.01Z"/>
            <path class="cls-4" d="M35.46,98.61c1.09-3.18,3.59-5.7,6.74-6.8-1.09,3.18-3.59,5.7-6.74,6.8Z"/>
          </g>
          <g>
            <path class="cls-3" d="M18,102.21c7.67,0,13.88-6.27,13.88-14.01-7.67,0-13.88,6.27-13.88,14.01Z"/>
            <path class="cls-4" d="M21.57,98.61c1.09-3.18,3.59-5.7,6.74-6.8-1.09,3.18-3.59,5.7-6.74,6.8Z"/>
          </g>
        </g>
        <g>
          <g>
            <path class="cls-3" d="M31.88,116.22c-7.67,0-13.88-6.27-13.88-14.01,7.67,0,13.88,6.27,13.88,14.01Z"/>
            <path class="cls-5" d="M28.31,112.62c-1.09-3.18-3.59-5.7-6.74-6.8,1.09,3.18,3.59,5.7,6.74,6.8Z"/>
          </g>
          <g>
            <path class="cls-3" d="M45.77,116.22c-7.67,0-13.88-6.27-13.88-14.01,7.67,0,13.88,6.27,13.88,14.01Z"/>
            <path class="cls-5" d="M42.19,112.62c-1.09-3.18-3.59-5.7-6.74-6.8,1.09,3.18,3.59,5.7,6.74,6.8Z"/>
          </g>
          <g>
            <path class="cls-3" d="M31.88,130.23c7.67,0,13.88-6.27,13.88-14.01-7.67,0-13.88,6.27-13.88,14.01Z"/>
            <path class="cls-4" d="M35.46,126.63c1.09-3.18,3.59-5.7,6.74-6.8-1.09,3.18-3.59,5.7-6.74,6.8Z"/>
          </g>
          <g>
            <path class="cls-3" d="M18,130.23c7.67,0,13.88-6.27,13.88-14.01-7.67,0-13.88,6.27-13.88,14.01Z"/>
            <path class="cls-4" d="M21.57,126.63c1.09-3.18,3.59-5.7,6.74-6.8-1.09,3.18-3.59,5.7-6.74,6.8Z"/>
          </g>
        </g>
        <g>
          <g>
            <path class="cls-3" d="M31.88,144.24c-7.67,0-13.88-6.27-13.88-14.01,7.67,0,13.88,6.27,13.88,14.01Z"/>
            <path class="cls-5" d="M28.31,140.64c-1.09-3.18-3.59-5.7-6.74-6.8,1.09,3.18,3.59,5.7,6.74,6.8Z"/>
          </g>
          <g>
            <path class="cls-3" d="M45.77,144.24c-7.67,0-13.88-6.27-13.88-14.01,7.67,0,13.88,6.27,13.88,14.01Z"/>
            <path class="cls-5" d="M42.19,140.64c-1.09-3.18-3.59-5.7-6.74-6.8,1.09,3.18,3.59,5.7,6.74,6.8Z"/>
          </g>
          <g>
            <path class="cls-3" d="M31.88,158.26c7.67,0,13.88-6.27,13.88-14.01-7.67,0-13.88,6.27-13.88,14.01Z"/>
            <path class="cls-4" d="M35.46,154.65c1.09-3.18,3.59-5.7,6.74-6.8-1.09,3.18-3.59,5.7-6.74,6.8Z"/>
          </g>
          <g>
            <path class="cls-3" d="M18,158.26c7.67,0,13.88-6.27,13.88-14.01-7.67,0-13.88,6.27-13.88,14.01Z"/>
            <path class="cls-4" d="M21.57,154.65c1.09-3.18,3.59-5.7,6.74-6.8-1.09,3.18-3.59,5.7-6.74,6.8Z"/>
          </g>
        </g>
        <g>
          <g>
            <path class="cls-3" d="M31.88,172.27c-7.67,0-13.88-6.27-13.88-14.01,7.67,0,13.88,6.27,13.88,14.01Z"/>
            <path class="cls-5" d="M28.31,168.66c-1.09-3.18-3.59-5.7-6.74-6.8,1.09,3.18,3.59,5.7,6.74,6.8Z"/>
          </g>
          <g>
            <path class="cls-3" d="M45.77,172.27c-7.67,0-13.88-6.27-13.88-14.01,7.67,0,13.88,6.27,13.88,14.01Z"/>
            <path class="cls-5" d="M42.19,168.66c-1.09-3.18-3.59-5.7-6.74-6.8,1.09,3.18,3.59,5.7,6.74,6.8Z"/>
          </g>
          <g>
            <path class="cls-3" d="M31.88,186.28c7.67,0,13.88-6.27,13.88-14.01-7.67,0-13.88,6.27-13.88,14.01Z"/>
            <path class="cls-4" d="M35.46,182.67c1.09-3.18,3.59-5.7,6.74-6.8-1.09,3.18-3.59,5.7-6.74,6.8Z"/>
          </g>
          <g>
            <path class="cls-3" d="M18,186.28c7.67,0,13.88-6.27,13.88-14.01-7.67,0-13.88,6.27-13.88,14.01Z"/>
            <path class="cls-4" d="M21.57,182.67c1.09-3.18,3.59-5.7,6.74-6.8-1.09,3.18-3.59,5.7-6.74,6.8Z"/>
          </g>
        </g>
        <g>
          <g>
            <path class="cls-3" d="M59.65,32.16c-7.67,0-13.88-6.27-13.88-14.01,7.67,0,13.88,6.27,13.88,14.01Z"/>
            <path class="cls-5" d="M56.08,28.55c-1.09-3.18-3.59-5.7-6.74-6.8,1.09,3.18,3.59,5.7,6.74,6.8Z"/>
          </g>
          <g>
            <path class="cls-3" d="M73.54,32.16c-7.67,0-13.88-6.27-13.88-14.01,7.67,0,13.88,6.27,13.88,14.01Z"/>
            <path class="cls-5" d="M69.96,28.55c-1.09-3.18-3.59-5.7-6.74-6.8,1.09,3.18,3.59,5.7,6.74,6.8Z"/>
          </g>
          <g>
            <path class="cls-3" d="M59.65,46.17c7.67,0,13.88-6.27,13.88-14.01-7.67,0-13.88,6.27-13.88,14.01Z"/>
            <path class="cls-4" d="M63.23,42.56c1.09-3.18,3.59-5.7,6.74-6.8-1.09,3.18-3.59,5.7-6.74,6.8Z"/>
          </g>
          <g>
            <path class="cls-3" d="M45.77,46.17c7.67,0,13.88-6.27,13.88-14.01-7.67,0-13.88,6.27-13.88,14.01Z"/>
            <path class="cls-4" d="M49.34,42.56c1.09-3.18,3.59-5.7,6.74-6.8-1.09,3.18-3.59,5.7-6.74,6.8Z"/>
          </g>
        </g>
        <g>
          <g>
            <path class="cls-3" d="M59.65,60.18c-7.67,0-13.88-6.27-13.88-14.01,7.67,0,13.88,6.27,13.88,14.01Z"/>
            <path class="cls-5" d="M56.08,56.57c-1.09-3.18-3.59-5.7-6.74-6.8,1.09,3.18,3.59,5.7,6.74,6.8Z"/>
          </g>
          <g>
            <path class="cls-3" d="M73.54,60.18c-7.67,0-13.88-6.27-13.88-14.01,7.67,0,13.88,6.27,13.88,14.01Z"/>
            <path class="cls-5" d="M69.96,56.57c-1.09-3.18-3.59-5.7-6.74-6.8,1.09,3.18,3.59,5.7,6.74,6.8Z"/>
          </g>
          <g>
            <path class="cls-3" d="M59.65,74.19c7.67,0,13.88-6.27,13.88-14.01-7.67,0-13.88,6.27-13.88,14.01Z"/>
            <path class="cls-4" d="M63.23,70.58c1.09-3.18,3.59-5.7,6.74-6.8-1.09,3.18-3.59,5.7-6.74,6.8Z"/>
          </g>
          <g>
            <path class="cls-3" d="M45.77,74.19c7.67,0,13.88-6.27,13.88-14.01-7.67,0-13.88,6.27-13.88,14.01Z"/>
            <path class="cls-4" d="M49.34,70.58c1.09-3.18,3.59-5.7,6.74-6.8-1.09,3.18-3.59,5.7-6.74,6.8Z"/>
          </g>
        </g>
        <g>
          <g>
            <path class="cls-3" d="M59.65,88.2c-7.67,0-13.88-6.27-13.88-14.01,7.67,0,13.88,6.27,13.88,14.01Z"/>
            <path class="cls-5" d="M56.08,84.59c-1.09-3.18-3.59-5.7-6.74-6.8,1.09,3.18,3.59,5.7,6.74,6.8Z"/>
          </g>
          <g>
            <path class="cls-3" d="M73.54,88.2c-7.67,0-13.88-6.27-13.88-14.01,7.67,0,13.88,6.27,13.88,14.01Z"/>
            <path class="cls-5" d="M69.96,84.59c-1.09-3.18-3.59-5.7-6.74-6.8,1.09,3.18,3.59,5.7,6.74,6.8Z"/>
          </g>
          <g>
            <path class="cls-3" d="M59.65,102.21c7.67,0,13.88-6.27,13.88-14.01-7.67,0-13.88,6.27-13.88,14.01Z"/>
            <path class="cls-4" d="M63.23,98.61c1.09-3.18,3.59-5.7,6.74-6.8-1.09,3.18-3.59,5.7-6.74,6.8Z"/>
          </g>
          <g>
            <path class="cls-3" d="M45.77,102.21c7.67,0,13.88-6.27,13.88-14.01-7.67,0-13.88,6.27-13.88,14.01Z"/>
            <path class="cls-4" d="M49.34,98.61c1.09-3.18,3.59-5.7,6.74-6.8-1.09,3.18-3.59,5.7-6.74,6.8Z"/>
          </g>
        </g>
        <g>
          <g>
            <path class="cls-3" d="M59.65,116.22c-7.67,0-13.88-6.27-13.88-14.01,7.67,0,13.88,6.27,13.88,14.01Z"/>
            <path class="cls-5" d="M56.08,112.62c-1.09-3.18-3.59-5.7-6.74-6.8,1.09,3.18,3.59,5.7,6.74,6.8Z"/>
          </g>
          <g>
            <path class="cls-3" d="M73.54,116.22c-7.67,0-13.88-6.27-13.88-14.01,7.67,0,13.88,6.27,13.88,14.01Z"/>
            <path class="cls-5" d="M69.96,112.62c-1.09-3.18-3.59-5.7-6.74-6.8,1.09,3.18,3.59,5.7,6.74,6.8Z"/>
          </g>
          <g>
            <path class="cls-3" d="M59.65,130.23c7.67,0,13.88-6.27,13.88-14.01-7.67,0-13.88,6.27-13.88,14.01Z"/>
            <path class="cls-4" d="M63.23,126.63c1.09-3.18,3.59-5.7,6.74-6.8-1.09,3.18-3.59,5.7-6.74,6.8Z"/>
          </g>
          <g>
            <path class="cls-3" d="M45.77,130.23c7.67,0,13.88-6.27,13.88-14.01-7.67,0-13.88,6.27-13.88,14.01Z"/>
            <path class="cls-4" d="M49.34,126.63c1.09-3.18,3.59-5.7,6.74-6.8-1.09,3.18-3.59,5.7-6.74,6.8Z"/>
          </g>
        </g>
        <g>
          <g>
            <path class="cls-3" d="M59.65,144.24c-7.67,0-13.88-6.27-13.88-14.01,7.67,0,13.88,6.27,13.88,14.01Z"/>
            <path class="cls-5" d="M56.08,140.64c-1.09-3.18-3.59-5.7-6.74-6.8,1.09,3.18,3.59,5.7,6.74,6.8Z"/>
          </g>
          <g>
            <path class="cls-3" d="M73.54,144.24c-7.67,0-13.88-6.27-13.88-14.01,7.67,0,13.88,6.27,13.88,14.01Z"/>
            <path class="cls-5" d="M69.96,140.64c-1.09-3.18-3.59-5.7-6.74-6.8,1.09,3.18,3.59,5.7,6.74,6.8Z"/>
          </g>
          <g>
            <path class="cls-3" d="M59.65,158.26c7.67,0,13.88-6.27,13.88-14.01-7.67,0-13.88,6.27-13.88,14.01Z"/>
            <path class="cls-4" d="M63.23,154.65c1.09-3.18,3.59-5.7,6.74-6.8-1.09,3.18-3.59,5.7-6.74,6.8Z"/>
          </g>
          <g>
            <path class="cls-3" d="M45.77,158.26c7.67,0,13.88-6.27,13.88-14.01-7.67,0-13.88,6.27-13.88,14.01Z"/>
            <path class="cls-4" d="M49.34,154.65c1.09-3.18,3.59-5.7,6.74-6.8-1.09,3.18-3.59,5.7-6.74,6.8Z"/>
          </g>
        </g>
        <g>
          <g>
            <path class="cls-3" d="M59.65,172.27c-7.67,0-13.88-6.27-13.88-14.01,7.67,0,13.88,6.27,13.88,14.01Z"/>
            <path class="cls-5" d="M56.08,168.66c-1.09-3.18-3.59-5.7-6.74-6.8,1.09,3.18,3.59,5.7,6.74,6.8Z"/>
          </g>
          <g>
            <path class="cls-3" d="M73.54,172.27c-7.67,0-13.88-6.27-13.88-14.01,7.67,0,13.88,6.27,13.88,14.01Z"/>
            <path class="cls-5" d="M69.96,168.66c-1.09-3.18-3.59-5.7-6.74-6.8,1.09,3.18,3.59,5.7,6.74,6.8Z"/>
          </g>
          <g>
            <path class="cls-3" d="M59.65,186.28c7.67,0,13.88-6.27,13.88-14.01-7.67,0-13.88,6.27-13.88,14.01Z"/>
            <path class="cls-4" d="M63.23,182.67c1.09-3.18,3.59-5.7,6.74-6.8-1.09,3.18-3.59,5.7-6.74,6.8Z"/>
          </g>
          <g>
            <path class="cls-3" d="M45.77,186.28c7.67,0,13.88-6.27,13.88-14.01-7.67,0-13.88,6.27-13.88,14.01Z"/>
            <path class="cls-4" d="M49.34,182.67c1.09-3.18,3.59-5.7,6.74-6.8-1.09,3.18-3.59,5.7-6.74,6.8Z"/>
          </g>
        </g>
        <g>
          <g>
            <path class="cls-3" d="M87.42,32.16c-7.67,0-13.88-6.27-13.88-14.01,7.67,0,13.88,6.27,13.88,14.01Z"/>
            <path class="cls-5" d="M83.85,28.55c-1.09-3.18-3.59-5.7-6.74-6.8,1.09,3.18,3.59,5.7,6.74,6.8Z"/>
          </g>
          <g>
            <path class="cls-3" d="M101.3,32.16c-7.67,0-13.88-6.27-13.88-14.01,7.67,0,13.88,6.27,13.88,14.01Z"/>
            <path class="cls-5" d="M97.73,28.55c-1.09-3.18-3.59-5.7-6.74-6.8,1.09,3.18,3.59,5.7,6.74,6.8Z"/>
          </g>
          <g>
            <path class="cls-3" d="M87.42,46.17c7.67,0,13.88-6.27,13.88-14.01-7.67,0-13.88,6.27-13.88,14.01Z"/>
            <path class="cls-4" d="M90.99,42.56c1.09-3.18,3.59-5.7,6.74-6.8-1.09,3.18-3.59,5.7-6.74,6.8Z"/>
          </g>
          <g>
            <path class="cls-3" d="M73.54,46.17c7.67,0,13.88-6.27,13.88-14.01-7.67,0-13.88,6.27-13.88,14.01Z"/>
            <path class="cls-4" d="M77.11,42.56c1.09-3.18,3.59-5.7,6.74-6.8-1.09,3.18-3.59,5.7-6.74,6.8Z"/>
          </g>
        </g>
        <g>
          <g>
            <path class="cls-3" d="M87.42,60.18c-7.67,0-13.88-6.27-13.88-14.01,7.67,0,13.88,6.27,13.88,14.01Z"/>
            <path class="cls-5" d="M83.85,56.57c-1.09-3.18-3.59-5.7-6.74-6.8,1.09,3.18,3.59,5.7,6.74,6.8Z"/>
          </g>
          <g>
            <path class="cls-3" d="M101.3,60.18c-7.67,0-13.88-6.27-13.88-14.01,7.67,0,13.88,6.27,13.88,14.01Z"/>
            <path class="cls-5" d="M97.73,56.57c-1.09-3.18-3.59-5.7-6.74-6.8,1.09,3.18,3.59,5.7,6.74,6.8Z"/>
          </g>
          <g>
            <path class="cls-3" d="M87.42,74.19c7.67,0,13.88-6.27,13.88-14.01-7.67,0-13.88,6.27-13.88,14.01Z"/>
            <path class="cls-4" d="M90.99,70.58c1.09-3.18,3.59-5.7,6.74-6.8-1.09,3.18-3.59,5.7-6.74,6.8Z"/>
          </g>
          <g>
            <path class="cls-3" d="M73.54,74.19c7.67,0,13.88-6.27,13.88-14.01-7.67,0-13.88,6.27-13.88,14.01Z"/>
            <path class="cls-4" d="M77.11,70.58c1.09-3.18,3.59-5.7,6.74-6.8-1.09,3.18-3.59,5.7-6.74,6.8Z"/>
          </g>
        </g>
        <g>
          <g>
            <path class="cls-3" d="M87.42,88.2c-7.67,0-13.88-6.27-13.88-14.01,7.67,0,13.88,6.27,13.88,14.01Z"/>
            <path class="cls-5" d="M83.85,84.59c-1.09-3.18-3.59-5.7-6.74-6.8,1.09,3.18,3.59,5.7,6.74,6.8Z"/>
          </g>
          <g>
            <path class="cls-3" d="M101.3,88.2c-7.67,0-13.88-6.27-13.88-14.01,7.67,0,13.88,6.27,13.88,14.01Z"/>
            <path class="cls-5" d="M97.73,84.59c-1.09-3.18-3.59-5.7-6.74-6.8,1.09,3.18,3.59,5.7,6.74,6.8Z"/>
          </g>
          <g>
            <path class="cls-3" d="M87.42,102.21c7.67,0,13.88-6.27,13.88-14.01-7.67,0-13.88,6.27-13.88,14.01Z"/>
            <path class="cls-4" d="M90.99,98.61c1.09-3.18,3.59-5.7,6.74-6.8-1.09,3.18-3.59,5.7-6.74,6.8Z"/>
          </g>
          <g>
            <path class="cls-3" d="M73.54,102.21c7.67,0,13.88-6.27,13.88-14.01-7.67,0-13.88,6.27-13.88,14.01Z"/>
            <path class="cls-4" d="M77.11,98.61c1.09-3.18,3.59-5.7,6.74-6.8-1.09,3.18-3.59,5.7-6.74,6.8Z"/>
          </g>
        </g>
        <g>
          <g>
            <path class="cls-3" d="M87.42,116.22c-7.67,0-13.88-6.27-13.88-14.01,7.67,0,13.88,6.27,13.88,14.01Z"/>
            <path class="cls-5" d="M83.85,112.62c-1.09-3.18-3.59-5.7-6.74-6.8,1.09,3.18,3.59,5.7,6.74,6.8Z"/>
          </g>
          <g>
            <path class="cls-3" d="M101.3,116.22c-7.67,0-13.88-6.27-13.88-14.01,7.67,0,13.88,6.27,13.88,14.01Z"/>
            <path class="cls-5" d="M97.73,112.62c-1.09-3.18-3.59-5.7-6.74-6.8,1.09,3.18,3.59,5.7,6.74,6.8Z"/>
          </g>
          <g>
            <path class="cls-3" d="M87.42,130.23c7.67,0,13.88-6.27,13.88-14.01-7.67,0-13.88,6.27-13.88,14.01Z"/>
            <path class="cls-4" d="M90.99,126.63c1.09-3.18,3.59-5.7,6.74-6.8-1.09,3.18-3.59,5.7-6.74,6.8Z"/>
          </g>
          <g>
            <path class="cls-3" d="M73.54,130.23c7.67,0,13.88-6.27,13.88-14.01-7.67,0-13.88,6.27-13.88,14.01Z"/>
            <path class="cls-4" d="M77.11,126.63c1.09-3.18,3.59-5.7,6.74-6.8-1.09,3.18-3.59,5.7-6.74,6.8Z"/>
          </g>
        </g>
        <g>
          <g>
            <path class="cls-3" d="M87.42,144.24c-7.67,0-13.88-6.27-13.88-14.01,7.67,0,13.88,6.27,13.88,14.01Z"/>
            <path class="cls-5" d="M83.85,140.64c-1.09-3.18-3.59-5.7-6.74-6.8,1.09,3.18,3.59,5.7,6.74,6.8Z"/>
          </g>
          <g>
            <path class="cls-3" d="M101.3,144.24c-7.67,0-13.88-6.27-13.88-14.01,7.67,0,13.88,6.27,13.88,14.01Z"/>
            <path class="cls-5" d="M97.73,140.64c-1.09-3.18-3.59-5.7-6.74-6.8,1.09,3.18,3.59,5.7,6.74,6.8Z"/>
          </g>
          <g>
            <path class="cls-3" d="M87.42,158.26c7.67,0,13.88-6.27,13.88-14.01-7.67,0-13.88,6.27-13.88,14.01Z"/>
            <path class="cls-4" d="M90.99,154.65c1.09-3.18,3.59-5.7,6.74-6.8-1.09,3.18-3.59,5.7-6.74,6.8Z"/>
          </g>
          <g>
            <path class="cls-3" d="M73.54,158.26c7.67,0,13.88-6.27,13.88-14.01-7.67,0-13.88,6.27-13.88,14.01Z"/>
            <path class="cls-4" d="M77.11,154.65c1.09-3.18,3.59-5.7,6.74-6.8-1.09,3.18-3.59,5.7-6.74,6.8Z"/>
          </g>
        </g>
        <g>
          <g>
            <path class="cls-3" d="M87.42,172.27c-7.67,0-13.88-6.27-13.88-14.01,7.67,0,13.88,6.27,13.88,14.01Z"/>
            <path class="cls-5" d="M83.85,168.66c-1.09-3.18-3.59-5.7-6.74-6.8,1.09,3.18,3.59,5.7,6.74,6.8Z"/>
          </g>
          <g>
            <path class="cls-3" d="M101.3,172.27c-7.67,0-13.88-6.27-13.88-14.01,7.67,0,13.88,6.27,13.88,14.01Z"/>
            <path class="cls-5" d="M97.73,168.66c-1.09-3.18-3.59-5.7-6.74-6.8,1.09,3.18,3.59,5.7,6.74,6.8Z"/>
          </g>
          <g>
            <path class="cls-3" d="M87.42,186.28c7.67,0,13.88-6.27,13.88-14.01-7.67,0-13.88,6.27-13.88,14.01Z"/>
            <path class="cls-4" d="M90.99,182.67c1.09-3.18,3.59-5.7,6.74-6.8-1.09,3.18-3.59,5.7-6.74,6.8Z"/>
          </g>
          <g>
            <path class="cls-3" d="M73.54,186.28c7.67,0,13.88-6.27,13.88-14.01-7.67,0-13.88,6.27-13.88,14.01Z"/>
            <path class="cls-4" d="M77.11,182.67c1.09-3.18,3.59-5.7,6.74-6.8-1.09,3.18-3.59,5.7-6.74,6.8Z"/>
          </g>
        </g>
        <g>
          <g>
            <path class="cls-3" d="M115.19,32.16c-7.67,0-13.88-6.27-13.88-14.01,7.67,0,13.88,6.27,13.88,14.01Z"/>
            <path class="cls-5" d="M111.61,28.55c-1.09-3.18-3.59-5.7-6.74-6.8,1.09,3.18,3.59,5.7,6.74,6.8Z"/>
          </g>
          <g>
            <path class="cls-3" d="M129.07,32.16c-7.67,0-13.88-6.27-13.88-14.01,7.67,0,13.88,6.27,13.88,14.01Z"/>
            <path class="cls-5" d="M125.5,28.55c-1.09-3.18-3.59-5.7-6.74-6.8,1.09,3.18,3.59,5.7,6.74,6.8Z"/>
          </g>
          <g>
            <path class="cls-3" d="M115.19,46.17c7.67,0,13.88-6.27,13.88-14.01-7.67,0-13.88,6.27-13.88,14.01Z"/>
            <path class="cls-4" d="M118.76,42.56c1.09-3.18,3.59-5.7,6.74-6.8-1.09,3.18-3.59,5.7-6.74,6.8Z"/>
          </g>
          <g>
            <path class="cls-3" d="M101.3,46.17c7.67,0,13.88-6.27,13.88-14.01-7.67,0-13.88,6.27-13.88,14.01Z"/>
            <path class="cls-4" d="M104.88,42.56c1.09-3.18,3.59-5.7,6.74-6.8-1.09,3.18-3.59,5.7-6.74,6.8Z"/>
          </g>
        </g>
        <g>
          <g>
            <path class="cls-3" d="M115.19,60.18c-7.67,0-13.88-6.27-13.88-14.01,7.67,0,13.88,6.27,13.88,14.01Z"/>
            <path class="cls-5" d="M111.61,56.57c-1.09-3.18-3.59-5.7-6.74-6.8,1.09,3.18,3.59,5.7,6.74,6.8Z"/>
          </g>
          <g>
            <path class="cls-3" d="M129.07,60.18c-7.67,0-13.88-6.27-13.88-14.01,7.67,0,13.88,6.27,13.88,14.01Z"/>
            <path class="cls-5" d="M125.5,56.57c-1.09-3.18-3.59-5.7-6.74-6.8,1.09,3.18,3.59,5.7,6.74,6.8Z"/>
          </g>
          <g>
            <path class="cls-3" d="M115.19,74.19c7.67,0,13.88-6.27,13.88-14.01-7.67,0-13.88,6.27-13.88,14.01Z"/>
            <path class="cls-4" d="M118.76,70.58c1.09-3.18,3.59-5.7,6.74-6.8-1.09,3.18-3.59,5.7-6.74,6.8Z"/>
          </g>
          <g>
            <path class="cls-3" d="M101.3,74.19c7.67,0,13.88-6.27,13.88-14.01-7.67,0-13.88,6.27-13.88,14.01Z"/>
            <path class="cls-4" d="M104.88,70.58c1.09-3.18,3.59-5.7,6.74-6.8-1.09,3.18-3.59,5.7-6.74,6.8Z"/>
          </g>
        </g>
        <g>
          <g>
            <path class="cls-3" d="M115.19,88.2c-7.67,0-13.88-6.27-13.88-14.01,7.67,0,13.88,6.27,13.88,14.01Z"/>
            <path class="cls-5" d="M111.61,84.59c-1.09-3.18-3.59-5.7-6.74-6.8,1.09,3.18,3.59,5.7,6.74,6.8Z"/>
          </g>
          <g>
            <path class="cls-3" d="M129.07,88.2c-7.67,0-13.88-6.27-13.88-14.01,7.67,0,13.88,6.27,13.88,14.01Z"/>
            <path class="cls-5" d="M125.5,84.59c-1.09-3.18-3.59-5.7-6.74-6.8,1.09,3.18,3.59,5.7,6.74,6.8Z"/>
          </g>
          <g>
            <path class="cls-3" d="M115.19,102.21c7.67,0,13.88-6.27,13.88-14.01-7.67,0-13.88,6.27-13.88,14.01Z"/>
            <path class="cls-4" d="M118.76,98.61c1.09-3.18,3.59-5.7,6.74-6.8-1.09,3.18-3.59,5.7-6.74,6.8Z"/>
          </g>
          <g>
            <path class="cls-3" d="M101.3,102.21c7.67,0,13.88-6.27,13.88-14.01-7.67,0-13.88,6.27-13.88,14.01Z"/>
            <path class="cls-4" d="M104.88,98.61c1.09-3.18,3.59-5.7,6.74-6.8-1.09,3.18-3.59,5.7-6.74,6.8Z"/>
          </g>
        </g>
        <g>
          <g>
            <path class="cls-3" d="M115.19,116.22c-7.67,0-13.88-6.27-13.88-14.01,7.67,0,13.88,6.27,13.88,14.01Z"/>
            <path class="cls-5" d="M111.61,112.62c-1.09-3.18-3.59-5.7-6.74-6.8,1.09,3.18,3.59,5.7,6.74,6.8Z"/>
          </g>
          <g>
            <path class="cls-3" d="M129.07,116.22c-7.67,0-13.88-6.27-13.88-14.01,7.67,0,13.88,6.27,13.88,14.01Z"/>
            <path class="cls-5" d="M125.5,112.62c-1.09-3.18-3.59-5.7-6.74-6.8,1.09,3.18,3.59,5.7,6.74,6.8Z"/>
          </g>
          <g>
            <path class="cls-3" d="M115.19,130.23c7.67,0,13.88-6.27,13.88-14.01-7.67,0-13.88,6.27-13.88,14.01Z"/>
            <path class="cls-4" d="M118.76,126.63c1.09-3.18,3.59-5.7,6.74-6.8-1.09,3.18-3.59,5.7-6.74,6.8Z"/>
          </g>
          <g>
            <path class="cls-3" d="M101.3,130.23c7.67,0,13.88-6.27,13.88-14.01-7.67,0-13.88,6.27-13.88,14.01Z"/>
            <path class="cls-4" d="M104.88,126.63c1.09-3.18,3.59-5.7,6.74-6.8-1.09,3.18-3.59,5.7-6.74,6.8Z"/>
          </g>
        </g>
        <g>
          <g>
            <path class="cls-3" d="M115.19,144.24c-7.67,0-13.88-6.27-13.88-14.01,7.67,0,13.88,6.27,13.88,14.01Z"/>
            <path class="cls-5" d="M111.61,140.64c-1.09-3.18-3.59-5.7-6.74-6.8,1.09,3.18,3.59,5.7,6.74,6.8Z"/>
          </g>
          <g>
            <path class="cls-3" d="M129.07,144.24c-7.67,0-13.88-6.27-13.88-14.01,7.67,0,13.88,6.27,13.88,14.01Z"/>
            <path class="cls-5" d="M125.5,140.64c-1.09-3.18-3.59-5.7-6.74-6.8,1.09,3.18,3.59,5.7,6.74,6.8Z"/>
          </g>
          <g>
            <path class="cls-3" d="M115.19,158.26c7.67,0,13.88-6.27,13.88-14.01-7.67,0-13.88,6.27-13.88,14.01Z"/>
            <path class="cls-4" d="M118.76,154.65c1.09-3.18,3.59-5.7,6.74-6.8-1.09,3.18-3.59,5.7-6.74,6.8Z"/>
          </g>
          <g>
            <path class="cls-3" d="M101.3,158.26c7.67,0,13.88-6.27,13.88-14.01-7.67,0-13.88,6.27-13.88,14.01Z"/>
            <path class="cls-4" d="M104.88,154.65c1.09-3.18,3.59-5.7,6.74-6.8-1.09,3.18-3.59,5.7-6.74,6.8Z"/>
          </g>
        </g>
        <g>
          <g>
            <path class="cls-3" d="M115.19,172.27c-7.67,0-13.88-6.27-13.88-14.01,7.67,0,13.88,6.27,13.88,14.01Z"/>
            <path class="cls-5" d="M111.61,168.66c-1.09-3.18-3.59-5.7-6.74-6.8,1.09,3.18,3.59,5.7,6.74,6.8Z"/>
          </g>
          <g>
            <path class="cls-3" d="M129.07,172.27c-7.67,0-13.88-6.27-13.88-14.01,7.67,0,13.88,6.27,13.88,14.01Z"/>
            <path class="cls-5" d="M125.5,168.66c-1.09-3.18-3.59-5.7-6.74-6.8,1.09,3.18,3.59,5.7,6.74,6.8Z"/>
          </g>
          <g>
            <path class="cls-3" d="M115.19,186.28c7.67,0,13.88-6.27,13.88-14.01-7.67,0-13.88,6.27-13.88,14.01Z"/>
            <path class="cls-4" d="M118.76,182.67c1.09-3.18,3.59-5.7,6.74-6.8-1.09,3.18-3.59,5.7-6.74,6.8Z"/>
          </g>
          <g>
            <path class="cls-3" d="M101.3,186.28c7.67,0,13.88-6.27,13.88-14.01-7.67,0-13.88,6.27-13.88,14.01Z"/>
            <path class="cls-4" d="M104.88,182.67c1.09-3.18,3.59-5.7,6.74-6.8-1.09,3.18-3.59,5.7-6.74,6.8Z"/>
          </g>
        </g>
      </g>
    </g>
  </g>
</svg>